<?xml version="1.0" encoding="UTF-8"?>
<svg version="1.1" xmlns="http://www.w3.org/2000/svg" width="4686" height="4881">
<path d="M0 0 C40.83260067 -0.01649439 81.6652016 -0.03231022 122.49780273 -0.04760742 C123.29681047 -0.04790681 124.09581821 -0.04820621 124.9190383 -0.04851467 C210.52244527 -0.08057233 296.12585233 -0.10824276 381.72926331 -0.12702942 C383.63044193 -0.12744777 385.53162056 -0.12786613 387.43279919 -0.12828448 C427.33780466 -0.13705227 467.24281024 -0.14520245 507.14781598 -0.15263903 C527.19300281 -0.15637526 547.23818961 -0.16023018 567.28337639 -0.16419732 C570.3071437 -0.16479507 573.33091101 -0.16538943 576.35467832 -0.16598364 C622.92417777 -0.17516511 669.49367486 -0.18689441 716.06317139 -0.20599365 C717.06468748 -0.20640435 718.06620358 -0.20681505 719.09806865 -0.20723819 C735.24578439 -0.21387542 751.39350004 -0.2207262 767.54121567 -0.22760532 C814.04366889 -0.24741267 860.5461203 -0.26564458 907.04857731 -0.27341938 C908.00458285 -0.27357999 908.96058839 -0.27374059 909.9455638 -0.27390606 C930.93069508 -0.27740311 951.91582639 -0.28008779 972.90095787 -0.28200295 C981.34428648 -0.28278783 989.78761508 -0.28368969 998.23094368 -0.28463173 C999.15503717 -0.28473201 1000.07913066 -0.28483229 1001.03122698 -0.28493561 C1030.82035101 -0.28822651 1060.60946162 -0.30104502 1090.39858023 -0.31884663 C1120.39902652 -0.336731 1150.39945978 -0.34530047 1180.39991154 -0.34087196 C1184.54317514 -0.3402627 1188.68643875 -0.33976056 1192.82970238 -0.33932304 C1193.64191893 -0.3392334 1194.45413548 -0.33914376 1195.29096465 -0.3390514 C1208.16568708 -0.33790827 1221.04038198 -0.34687319 1233.91509691 -0.36002959 C1246.56688641 -0.37275131 1259.21864015 -0.37482971 1271.87043303 -0.36549544 C1278.64179256 -0.36079466 1285.4130544 -0.36123702 1292.18440526 -0.37464955 C1298.33916005 -0.38674862 1304.49375024 -0.38514931 1310.64850237 -0.37241993 C1312.86639319 -0.37026952 1315.08429594 -0.37319687 1317.30217149 -0.38170573 C1320.306897 -0.39250642 1323.31103528 -0.38486137 1326.31574243 -0.37259549 C1327.17392492 -0.38012212 1328.03210741 -0.38764875 1328.91629543 -0.39540346 C1337.35531381 -0.32163769 1345.89876872 1.83805995 1352 8 C1356.42520384 14.30534226 1358.12153002 19.91569864 1358.13142776 27.60048199 C1358.13526891 28.72244022 1358.13911005 29.84439845 1358.1430676 31.00035542 C1358.14220112 32.22796442 1358.14133463 33.45557342 1358.14044189 34.72038269 C1358.14489858 36.68243785 1358.14489858 36.68243785 1358.1494453 38.68413049 C1358.15750445 42.31343674 1358.15930426 45.9427232 1358.16004276 49.57203734 C1358.16189521 53.48697477 1358.16944352 57.40190198 1358.17617798 61.3168335 C1358.18975419 69.8768518 1358.19578493 78.43686541 1358.20018864 86.99689269 C1358.2029523 92.3430712 1358.20718989 97.6892479 1358.21169281 103.03542519 C1358.22388463 117.84099686 1358.23418406 132.64656709 1358.2375679 147.45214367 C1358.23778747 148.39955566 1358.23800703 149.34696764 1358.23823325 150.32308908 C1358.23845153 151.27275229 1358.23866981 152.2224155 1358.2388947 153.20085639 C1358.23933817 155.12519658 1358.23978473 157.04953677 1358.24023438 158.97387695 C1358.2404558 159.92841368 1358.24067723 160.88295041 1358.24090537 161.8664125 C1358.24485271 177.3305253 1358.26230517 192.79459096 1358.2855939 208.25868555 C1358.30931779 224.14008829 1358.32177023 240.02146738 1358.32293582 255.90288812 C1358.323852 264.8178297 1358.32959007 273.73270986 1358.34775543 282.64763451 C1358.36317043 290.23946398 1358.36826863 297.83121304 1358.36001733 305.42305519 C1358.35611576 309.29467384 1358.35701622 313.16613063 1358.37107468 317.03772926 C1358.38619456 321.24016891 1358.37793254 325.44224527 1358.36749268 329.6446991 C1358.37554908 330.86115449 1358.38360548 332.07760988 1358.39190602 333.33092755 C1358.34316789 341.72530349 1357.78166051 350.84057847 1351.875 357.375 C1351.35679688 357.98085937 1350.83859375 358.58671875 1350.3046875 359.2109375 C1341.9627804 365.68651962 1333.16573239 365.56750203 1323.03435516 365.49942875 C1321.40131163 365.50318828 1319.76827136 365.50870284 1318.13523895 365.51580742 C1313.64282273 365.53027215 1309.15075569 365.5198403 1304.65835211 365.50539989 C1299.77283164 365.4941151 1294.8873595 365.50607158 1290.00184202 365.51511139 C1281.43769614 365.52776587 1272.87365302 365.52561847 1264.30950737 365.51382256 C1251.57445819 365.49636854 1238.83949153 365.50185169 1226.10443826 365.51219532 C1204.68021444 365.52900599 1183.25602823 365.52765119 1161.83180237 365.51642036 C1132.5776453 365.50128737 1103.32352774 365.51132157 1074.06937474 365.52793955 C1060.44447166 365.53566248 1046.81956793 365.54204749 1033.194664 365.5480566 C1032.51296501 365.5483589 1031.83126603 365.54866119 1031.12890949 365.54897265 C998.68657936 365.56328232 966.24425116 365.56501028 933.80191834 365.56425845 C931.64936525 365.56420897 929.49681216 365.56416441 927.34425908 365.56412117 C915.11079274 365.56387166 902.8773264 365.56354835 890.64386006 365.56314047 C858.93010951 365.56209269 827.21635926 365.56321956 795.50260881 365.56597608 C793.35065663 365.56616206 791.19870445 365.56634238 789.04675227 365.56652199 C756.63294485 365.56926304 724.21914077 365.57501167 691.805336 365.58873653 C691.12413712 365.58902339 690.44293824 365.58931024 689.74109697 365.58960578 C676.13147078 365.59534497 662.5218448 365.60143037 648.91221915 365.60833753 C619.01663405 365.62348515 589.12107715 365.63020219 559.22548892 365.61830606 C537.92567899 365.6099233 516.62589092 365.61153501 495.32608259 365.62371845 C482.66373093 365.63058848 470.00144512 365.62889575 457.33909865 365.61522212 C448.88756101 365.60689867 440.4360714 365.60934333 431.98453728 365.62062078 C427.16490867 365.62672882 422.34540841 365.62801818 417.52578777 365.61611075 C413.14208859 365.60536326 408.75862359 365.60837738 404.37493565 365.62240598 C402.79819316 365.62502795 401.22143226 365.62261318 399.64470813 365.61456399 C390.0601103 365.56890401 381.87421584 365.78117822 373.6875 371.1875 C368.11329816 377.02096704 365.87887826 383.48032852 365.86857224 391.4646101 C365.86473109 392.58171059 365.86088995 393.69881108 365.8569324 394.8497631 C365.85823213 396.69073261 365.85823213 396.69073261 365.85955811 398.56889343 C365.85658698 399.8726978 365.85361586 401.17650216 365.8505547 402.51981574 C365.84248571 406.14191039 365.84069519 409.76398521 365.83995724 413.38608778 C365.83810649 417.29148031 365.83055901 421.19686256 365.82382202 425.10224915 C365.81023858 433.64366507 365.80421388 442.1850763 365.79981136 450.72650123 C365.79704879 456.06010332 365.79281139 461.39370359 365.78830719 466.72730446 C365.77611418 481.49509282 365.76581514 496.26287974 365.7624321 511.03067303 C365.76221253 511.97590408 365.76199297 512.92113514 365.76176675 513.89500957 C365.76154847 514.84250139 365.76133019 515.78999321 365.7611053 516.76619691 C365.76066183 518.68617229 365.76021527 520.60614767 365.75976562 522.52612305 C365.7595442 523.47849697 365.75932277 524.4308709 365.75909463 525.41210464 C365.75514725 540.84139074 365.73769521 556.27062959 365.7144061 571.69989743 C365.69068737 587.54171325 365.67823 603.38350537 365.67706418 619.22533923 C365.67614768 628.11958407 365.67040167 637.01376735 365.65224457 645.90799522 C365.63683651 653.48231064 365.63172726 661.05654548 365.63998267 668.63087358 C365.64388677 672.49426043 365.64297143 676.35748506 365.62892532 680.2208519 C365.61382441 684.41274761 365.62206005 688.60427854 365.63250732 692.79618835 C365.62445092 694.01234776 365.61639452 695.22850716 365.60809398 696.48151988 C365.66056848 705.48074463 366.61614081 713.70529646 373.16923653 720.38705619 C380.85325615 727.15685034 390.31321805 726.56428393 399.96564484 726.49942875 C401.59868837 726.50318828 403.23172864 726.50870284 404.86476105 726.51580742 C409.35717727 726.53027215 413.84924431 726.5198403 418.34164789 726.50539989 C423.22716836 726.4941151 428.1126405 726.50607158 432.99815798 726.51511139 C441.56230386 726.52776587 450.12634698 726.52561847 458.69049263 726.51382256 C471.42554181 726.49636854 484.16050847 726.50185169 496.89556174 726.51219532 C518.31978556 726.52900599 539.74397177 726.52765119 561.16819763 726.51642036 C590.4223547 726.50128737 619.67647226 726.51132157 648.93062526 726.52793955 C662.55552834 726.53566248 676.18043207 726.54204749 689.805336 726.5480566 C690.82788448 726.54851005 690.82788448 726.54851005 691.87109051 726.54897265 C724.31342064 726.56328232 756.75574884 726.56501028 789.19808166 726.56425845 C791.35063475 726.56420897 793.50318784 726.56416441 795.65574092 726.56412117 C807.88920726 726.56387166 820.1226736 726.56354835 832.35613994 726.56314047 C864.06989049 726.56209269 895.78364074 726.56321956 927.49739119 726.56597608 C929.64934337 726.56616206 931.80129555 726.56634238 933.95324773 726.56652199 C966.36705515 726.56926304 998.78085923 726.57501167 1031.194664 726.58873653 C1032.21646232 726.58916681 1032.21646232 726.58916681 1033.25890303 726.58960578 C1046.86852922 726.59534497 1060.4781552 726.60143037 1074.08778085 726.60833753 C1103.98336595 726.62348515 1133.87892285 726.63020219 1163.77451108 726.61830606 C1185.07432101 726.6099233 1206.37410908 726.61153501 1227.67391741 726.62371845 C1240.33626907 726.63058848 1252.99855488 726.62889575 1265.66090135 726.61522212 C1274.11243899 726.60689867 1282.5639286 726.60934333 1291.01546272 726.62062078 C1295.83509133 726.62672882 1300.65459159 726.62801818 1305.47421223 726.61611075 C1309.85791141 726.60536326 1314.24137641 726.60837738 1318.62506435 726.62240598 C1320.20180684 726.62502795 1321.77856774 726.62261318 1323.35529187 726.61456399 C1332.89641956 726.5691111 1341.07718944 726.78123925 1349.25 732.125 C1355.565645 738.72771977 1358.11975054 745.5340827 1358.13142776 754.60048199 C1358.13526891 755.72244022 1358.13911005 756.84439845 1358.1430676 758.00035542 C1358.14220112 759.22796442 1358.14133463 760.45557342 1358.14044189 761.72038269 C1358.14489858 763.68243785 1358.14489858 763.68243785 1358.1494453 765.68413049 C1358.15750445 769.31343674 1358.15930426 772.9427232 1358.16004276 776.57203734 C1358.16189521 780.48697477 1358.16944352 784.40190198 1358.17617798 788.3168335 C1358.18975419 796.8768518 1358.19578493 805.43686541 1358.20018864 813.99689269 C1358.2029523 819.3430712 1358.20718989 824.6892479 1358.21169281 830.03542519 C1358.22388463 844.84099686 1358.23418406 859.64656709 1358.2375679 874.45214367 C1358.23778747 875.39955566 1358.23800703 876.34696764 1358.23823325 877.32308908 C1358.23845153 878.27275229 1358.23866981 879.2224155 1358.2388947 880.20085639 C1358.23933817 882.12519658 1358.23978473 884.04953677 1358.24023438 885.97387695 C1358.2404558 886.92841368 1358.24067723 887.88295041 1358.24090537 888.8664125 C1358.24485271 904.3305253 1358.26230517 919.79459096 1358.2855939 935.25868555 C1358.30931779 951.14008829 1358.32177023 967.02146738 1358.32293582 982.90288812 C1358.323852 991.8178297 1358.32959007 1000.73270986 1358.34775543 1009.64763451 C1358.36317043 1017.23946398 1358.36826863 1024.83121304 1358.36001733 1032.42305519 C1358.35611576 1036.29467384 1358.35701622 1040.16613063 1358.37107468 1044.03772926 C1358.38619456 1048.24016891 1358.37793254 1052.44224527 1358.36749268 1056.6446991 C1358.37957728 1058.46938218 1358.37957728 1058.46938218 1358.39190602 1060.33092755 C1358.34316789 1068.72530349 1357.78166051 1077.84057847 1351.875 1084.375 C1351.35679688 1084.98085937 1350.83859375 1085.58671875 1350.3046875 1086.2109375 C1343.89865321 1091.18375734 1337.37975954 1092.59125354 1329.42984158 1092.50254732 C1328.50293704 1092.50828082 1327.57603251 1092.51401432 1326.62103996 1092.51992156 C1323.51561747 1092.5342558 1320.41098802 1092.52013858 1317.30557346 1092.50615788 C1315.04694128 1092.51063437 1312.788312 1092.51686231 1310.52968892 1092.52468321 C1304.30033291 1092.54113584 1298.07122046 1092.5325842 1291.84186446 1092.52007158 C1285.77133757 1092.51180065 1279.70086871 1092.52236822 1273.63034939 1092.53237326 C1261.0622785 1092.55240674 1248.49426994 1092.55342976 1235.92618942 1092.54411316 C1223.18913153 1092.53473619 1210.45211729 1092.53402642 1197.71505928 1092.54389763 C1196.91068395 1092.5445148 1196.10630861 1092.54513197 1195.27755827 1092.54576784 C1192.00148098 1092.54830928 1188.72540375 1092.55091109 1185.44932657 1092.55358986 C1152.18646894 1092.58076146 1118.92364475 1092.58218365 1085.66077938 1092.57363184 C1081.06397568 1092.57245888 1076.46717197 1092.57132574 1071.87036824 1092.57023358 C1070.95735108 1092.57001644 1070.04433391 1092.5697993 1069.10364956 1092.56957559 C1048.87568623 1092.5649442 1028.64772665 1092.56836609 1008.41976374 1092.57350009 C1005.65188461 1092.57420244 1002.88400547 1092.57488742 1000.11612633 1092.57556724 C992.69653011 1092.57739262 985.2769339 1092.5792382 977.8573377 1092.58112001 C957.11570203 1092.58634475 936.37406622 1092.5901569 915.63243008 1092.59282589 C914.68785911 1092.59294744 913.74328814 1092.59306898 912.7700938 1092.59319421 C882.66641236 1092.59695851 852.56273482 1092.59436648 822.45905399 1092.5875864 C821.48249418 1092.58736785 820.50593436 1092.58714929 819.49978183 1092.58692412 C808.60989402 1092.58447888 797.72000625 1092.58190898 786.83011848 1092.57928873 C785.84690585 1092.57905219 784.86369322 1092.57881565 783.85068626 1092.57857194 C779.87449107 1092.57761456 775.89829588 1092.57665701 771.92210069 1092.57569179 C709.0230015 1092.5604427 646.12394785 1092.56843773 583.22485352 1092.59692383 C567.3748656 1092.60408828 551.52487767 1092.61119083 535.67488956 1092.61790562 C534.69897737 1092.61831984 533.72306518 1092.61873405 532.71757988 1092.61916082 C502.64650724 1092.63184193 472.57543839 1092.63835263 442.50436306 1092.63831234 C441.56047006 1092.63831154 440.61657707 1092.63831074 439.64408126 1092.63830991 C418.92497017 1092.63822572 398.20585943 1092.63658616 377.48674857 1092.63353152 C370.07342426 1092.63244759 362.66009994 1092.6314563 355.24677561 1092.63050066 C353.4024944 1092.63026058 351.5582132 1092.63001418 349.71393199 1092.62976144 C320.31109441 1092.62576565 290.90828265 1092.63575773 261.50545021 1092.65246569 C231.07537234 1092.66962056 200.64534555 1092.66818203 170.21527059 1092.64555968 C166.94896103 1092.64320308 163.68265143 1092.6409262 160.41634178 1092.63871193 C159.61472221 1092.63816122 158.81310264 1092.63761051 157.98719157 1092.63704312 C145.28371268 1092.62876634 132.5803025 1092.63725958 119.87683261 1092.65269013 C107.39171324 1092.66750195 94.90670395 1092.66451 82.4215941 1092.64245573 C75.74033318 1092.63113908 69.05935768 1092.62833666 62.3780917 1092.64713103 C56.30397142 1092.66405449 50.23032602 1092.65810948 44.15623527 1092.63366519 C41.96871964 1092.62890926 39.78116588 1092.63258656 37.59368369 1092.64558421 C15.81776738 1092.76603889 15.81776738 1092.76603889 7.20071394 1085.478277 C-1.5868137 1076.5428986 -0.42501952 1063.67149767 -0.36914349 1052.05893517 C-0.37136422 1050.22247026 -0.37490192 1048.38600657 -0.37963298 1046.54954642 C-0.38883013 1041.49709478 -0.37932306 1036.44482455 -0.36679858 1031.39238643 C-0.35648911 1025.89812479 -0.36360968 1020.4038814 -0.36853105 1014.90961611 C-0.37475208 1005.27847487 -0.36982124 995.64738921 -0.35761642 986.01625443 C-0.33951868 971.69509674 -0.33860329 957.37397285 -0.34124239 943.05280595 C-0.34546348 918.96288096 -0.33517727 894.87297969 -0.31719017 870.78306198 C-0.29942065 846.92753354 -0.28786447 823.07201527 -0.28463173 799.21648026 C-0.28452849 798.475521 -0.28442526 797.73456175 -0.28431889 796.97114918 C-0.28337929 790.20359197 -0.28251622 783.43603475 -0.28174497 776.66847752 C-0.27982682 759.84535867 -0.27694888 743.02224006 -0.27341938 726.19912148 C-0.27325943 725.43304791 -0.27309948 724.66697435 -0.27293468 723.87768644 C-0.26507079 686.61588219 -0.24614839 649.35408464 -0.22631836 612.09228516 C-0.21944336 599.16219081 -0.21261725 586.23209643 -0.20599365 573.30200195 C-0.2055828 572.50007228 -0.20517196 571.69814261 -0.20474866 570.87191204 C-0.18571512 533.58965363 -0.17453923 496.30739406 -0.16538927 459.02513207 C-0.16479508 456.60463019 -0.1641975 454.18412831 -0.16359923 451.76362644 C-0.15963987 435.72278475 -0.15581593 419.68194302 -0.15208265 403.64110128 C-0.14465322 371.72402286 -0.13642817 339.80694467 -0.12765651 307.88986659 C-0.12723879 306.36990468 -0.12682163 304.84994278 -0.12640502 303.32998087 C-0.10423031 222.44666865 -0.0686616 141.56336326 0 0 Z " fill="#000000" transform="translate(1680,1502)"/>
<path d="M0 0 C1.39089565 -0.0084139 1.39089565 -0.0084139 2.80989019 -0.01699778 C5.92256641 -0.03093652 9.03445003 -0.01636181 12.14711475 -0.00196791 C14.40859731 -0.00614013 16.6700772 -0.01206488 18.9315511 -0.01958537 C25.17347246 -0.03521738 31.41514764 -0.02581268 37.65706517 -0.01247356 C43.73836771 -0.00340019 49.8196146 -0.01316508 55.90091197 -0.02238176 C68.49235661 -0.0407863 81.08373664 -0.04017955 93.67518711 -0.02925825 C106.43685052 -0.0182567 119.1984714 -0.01592907 131.96013737 -0.02420759 C132.76590485 -0.02472428 133.57167234 -0.02524097 134.40185702 -0.02577332 C137.68357309 -0.02790638 140.96528911 -0.03010121 144.24700509 -0.03237442 C174.82109253 -0.05353793 205.39515146 -0.05496386 235.96924305 -0.04378462 C237.32851044 -0.04328785 237.32851044 -0.04328785 238.71523777 -0.04278104 C240.07667424 -0.04228346 240.07667424 -0.04228346 241.46561447 -0.04177583 C269.10075892 -0.03168895 296.73589158 -0.02907481 324.37103748 -0.03386641 C326.22057236 -0.03417632 328.07010724 -0.03448495 329.91964211 -0.03479229 C337.35188602 -0.03603412 344.78412992 -0.03730878 352.21637381 -0.03863134 C372.9934379 -0.04229963 393.77050204 -0.04458185 414.54756641 -0.04577589 C415.49375754 -0.04583047 416.43994866 -0.04588506 417.41481225 -0.04594129 C447.57109546 -0.04757875 477.72737457 -0.04306903 507.8836565 -0.03437757 C508.86195628 -0.03409658 509.84025606 -0.03381558 510.84820129 -0.03352607 C526.73582896 -0.02894611 542.62345654 -0.02406834 558.51108412 -0.01916538 C621.5259062 0.00026043 684.5406943 -0.0006412 747.55551624 -0.02008772 C763.43506841 -0.02497236 779.31462059 -0.02981651 795.19417286 -0.03437757 C796.17189339 -0.03465937 797.14961392 -0.03494116 798.15696235 -0.03523149 C828.28139642 -0.04385435 858.40582767 -0.04751368 888.53026295 -0.04577589 C889.475762 -0.04572155 890.42126105 -0.04566722 891.39541159 -0.04561123 C912.14927175 -0.0443614 932.9031316 -0.041827 953.65699146 -0.03813388 C961.0826487 -0.03681727 968.50830595 -0.03556496 975.9339632 -0.03433103 C977.78132612 -0.03402148 979.62868905 -0.03370656 981.47605197 -0.03338625 C1009.10490349 -0.02860899 1036.73374173 -0.03268325 1064.36259159 -0.04278104 C1065.26876985 -0.04311222 1066.17494811 -0.0434434 1067.10858631 -0.04378462 C1068.46535362 -0.04428071 1068.46535362 -0.04428071 1069.84953037 -0.04478683 C1100.33419104 -0.05581147 1130.81881747 -0.05177808 1161.30347323 -0.03066164 C1164.57487945 -0.02845216 1167.8462857 -0.02630535 1171.11769199 -0.02420759 C1171.92056762 -0.02368676 1172.72344324 -0.02316594 1173.55064843 -0.02262933 C1186.27969331 -0.01473011 1199.00869572 -0.02024297 1211.73773678 -0.03128362 C1224.2446179 -0.04184733 1236.75142716 -0.03818241 1249.25829915 -0.01922726 C1255.95259163 -0.00946931 1262.64670261 -0.00654533 1269.34100091 -0.02085119 C1275.42458976 -0.03372001 1281.50787291 -0.02835934 1287.59143923 -0.00812855 C1289.78464872 -0.00408229 1291.9778832 -0.00681033 1294.17107297 -0.01695231 C1297.1403653 -0.02971455 1300.10858701 -0.01796175 1303.07782936 0 C1303.9283461 -0.00956297 1304.77886284 -0.01912594 1305.65515281 -0.02897869 C1312.42032905 0.05459003 1317.48582603 2.02650355 1322.74594593 6.29045916 C1323.27575062 6.89631853 1323.80555531 7.50217791 1324.35141468 8.12639666 C1325.16545765 9.01198259 1325.16545765 9.01198259 1325.99594593 9.91545916 C1330.80521361 17.97554828 1330.97049624 26.63704291 1330.91986561 35.78508806 C1330.92454558 37.09331341 1330.92922555 38.40153875 1330.93404734 39.74940729 C1330.94650179 43.35609104 1330.94041254 46.96253482 1330.93108869 50.56921911 C1330.92427559 54.46840094 1330.93479059 58.36754272 1330.94302845 62.26671648 C1330.95634394 69.8955124 1330.9534978 77.5242196 1330.94479053 85.15301895 C1330.93800578 91.3550287 1330.93710068 97.55701365 1330.94036198 103.75902605 C1330.94082168 104.64289952 1330.94128137 105.52677299 1330.941755 106.4374305 C1330.94271421 108.23319786 1330.94368685 110.0289652 1330.94467278 111.82473254 C1330.95322027 128.64988396 1330.9434026 145.47498629 1330.92727168 162.30012965 C1330.91386908 176.72596719 1330.91619735 191.1517323 1330.93002796 205.57756853 C1330.94609509 222.34394761 1330.95239636 239.1102837 1330.94319117 255.87666941 C1330.94223556 257.66570202 1330.94129245 259.45473464 1330.94036198 261.24376726 C1330.93989915 262.12392555 1330.93943632 263.00408384 1330.93895947 263.91091359 C1330.93637298 270.10297072 1330.94073322 276.2950005 1330.94780064 282.48705339 C1330.95622843 290.03668635 1330.95390865 297.58622576 1330.9379584 305.13584805 C1330.93009287 308.98521524 1330.92695463 312.83442667 1330.93690586 316.68379259 C1330.9475433 320.86189813 1330.93481208 325.03961293 1330.91986561 329.21770525 C1330.92655777 330.42685909 1330.93324994 331.63601294 1330.9401449 332.8818078 C1330.88192715 341.27917812 1330.318072 350.38535377 1324.35141468 356.87639666 C1323.82160999 357.48225603 1323.29180531 358.08811541 1322.74594593 358.71233416 C1316.53398694 363.74786906 1310.82359225 365.08967763 1302.95320749 364.99819064 C1302.01245019 365.00330299 1301.07169289 365.00841533 1300.10242779 365.0136826 C1296.94376242 365.02595274 1293.78589438 365.00967614 1290.62725544 364.99358797 C1288.33265514 364.99654647 1286.03805656 365.00126076 1283.74346304 365.00757396 C1277.40963292 365.01987632 1271.07605868 365.00712804 1264.74224757 364.99046143 C1258.571697 364.97619031 1252.40115515 364.98474224 1246.23059792 364.99079569 C1233.45444416 365.00265905 1220.67836347 364.9955681 1207.90221882 364.97821856 C1194.95351034 364.96071208 1182.00483964 364.95192752 1169.05611897 364.95382738 C1168.2385687 364.95394215 1167.42101844 364.95405692 1166.57869393 364.95417517 C1162.41007518 364.95480066 1158.24145647 364.95556845 1154.07283776 364.95638651 C1123.89205639 364.96201807 1093.71130865 364.94828775 1063.53053761 364.92431688 C1033.6390259 364.90063245 1003.7475286 364.88521761 973.85600758 364.88090563 C972.92792164 364.88076798 971.9998357 364.88063033 971.04362594 364.88048851 C962.56707374 364.87923573 954.09052152 364.87808496 945.61396928 364.87705662 C924.54157994 364.87449893 903.46919092 364.87066158 882.39680195 364.86595583 C881.43717893 364.86574256 880.47755591 364.86552929 879.48885341 364.86530956 C832.80110799 364.85482178 786.11337208 364.82959085 739.42563343 364.80315447 C723.22258988 364.79398788 707.0195463 364.78488645 690.81650257 364.77605486 C689.81159734 364.77550706 688.80669212 364.77495927 687.77133522 364.77439487 C641.06162251 364.74902166 594.35190816 364.73411719 547.64219037 364.72191568 C544.61000798 364.72112342 541.57782559 364.72032665 538.5456432 364.71952896 C518.4513243 364.71424987 498.35700536 364.70915126 478.26268638 364.70417352 C438.27948924 364.69426735 398.2962924 364.68330061 358.31309574 364.67160534 C356.40896305 364.67104838 354.50483036 364.67049216 352.60069767 364.66993668 C266.87371844 364.64492223 181.14674617 364.60756979 95.41977406 364.56487322 C94.2156243 364.56427361 94.2156243 364.56427361 92.98714828 364.56366188 C52.83773669 364.54365976 12.68832547 364.52295369 -27.46108532 364.50139666 C-27.52976205 321.10284823 -27.5826195 277.70430557 -27.61428131 234.30571351 C-27.6180334 229.18132525 -27.62191637 224.0569371 -27.62588024 218.932549 C-27.62666717 217.91238185 -27.6274541 216.8922147 -27.62826488 215.8411334 C-27.64131639 199.32589731 -27.66496884 182.81069257 -27.69254371 166.29547508 C-27.72060499 149.34750277 -27.73726311 132.39954686 -27.7433508 115.45155227 C-27.74746574 104.99496973 -27.76045936 94.53847581 -27.78483472 84.08192055 C-27.80070081 76.91005115 -27.80548369 69.73822751 -27.80158945 62.56634183 C-27.79966927 58.42944787 -27.80259891 54.2927087 -27.81870174 50.1558423 C-27.83335214 46.36433726 -27.83400456 42.5730904 -27.823782 38.78157322 C-27.82192388 36.76883804 -27.83481644 34.75610568 -27.84832925 32.743415 C-27.80584989 24.12946992 -27.41304492 14.80542871 -21.27358532 8.12639666 C-20.74378063 7.52053728 -20.21397594 6.91467791 -19.66811657 6.29045916 C-13.50128446 1.29150498 -7.81575868 -0.08787817 0 0 Z " fill="#000000" transform="translate(1707.461085319519,774.4986033439636)"/>
<path d="M0 0 C0.63115723 0.47566406 1.26231445 0.95132813 1.91259766 1.44140625 C8.79515824 6.66695522 15.41127556 12.10259885 21.7734375 17.95703125 C23.81427926 19.82959308 25.89463697 21.63829534 28 23.4375 C35.57441452 30.04789813 42.56328518 37.28339788 49 45 C49.67820801 45.80751709 49.67820801 45.80751709 50.37011719 46.63134766 C63.37682924 62.16875863 74.79302397 78.49813524 85 96 C85.4522998 96.77150391 85.90459961 97.54300781 86.37060547 98.33789062 C110.21253737 139.33551864 124.365703 185.57034222 130.25 232.5 C130.41338867 233.7797168 130.57677734 235.05943359 130.74511719 236.37792969 C132.18389191 248.63972619 132.48132757 260.55186162 133 273 C-34.97 273 -202.94 273 -376 273 C-374.5192571 290.17934642 -374.5192571 290.17934642 -371.25 306.8125 C-370.98541992 307.86526123 -370.72083984 308.91802246 -370.44824219 310.00268555 C-364.8368288 331.71113386 -355.19128146 351.86198799 -342 370 C-341.60296875 370.5578418 -341.2059375 371.11568359 -340.796875 371.69042969 C-312.09900838 411.68575192 -268.26368521 436.03494132 -220.39501953 444.63037109 C-214.11265454 445.59994302 -208.02922404 446.16436418 -201.6796875 446.203125 C-200.90684921 446.21013931 -200.13401093 446.21715363 -199.3377533 446.22438049 C-196.85010908 446.24181605 -194.36270312 446.24823497 -191.875 446.25 C-191.0244101 446.25067474 -190.17382019 446.25134949 -189.29745483 446.25204468 C-139.70336993 446.18955787 -96.35948186 429.17763026 -60.5 394.875 C-43.67512896 377.65771214 -33.346713 357.7280973 -23 336 C27.16 336 77.32 336 129 336 C116.6129582 391.74168808 86.34683716 445.50381345 47.6328125 487.14453125 C45.31068635 489.66303899 43.05461464 492.22307741 40.8125 494.8125 C37.79792704 498.21762493 34.62776594 501.22391699 31.15234375 504.15234375 C29.65262706 505.43975935 28.18843067 506.76922659 26.75390625 508.12890625 C-30.71210694 562.54680018 -112.83473413 586.19696039 -190.5 586.25 C-191.39606964 586.25067474 -192.29213928 586.25134949 -193.21536255 586.25204468 C-267.71835544 586.16363295 -342.10429161 560.84119546 -399 512 C-400.0003125 511.18273438 -401.000625 510.36546875 -402.03125 509.5234375 C-409.68066616 503.2219762 -416.78566517 496.42361744 -423.8125 489.4375 C-424.68374512 488.57543945 -425.55499023 487.71337891 -426.45263672 486.82519531 C-432.3905483 480.85904561 -437.76533717 474.58701026 -443 468 C-443.92932888 466.86582471 -444.86002367 465.73276506 -445.79296875 464.6015625 C-499.85134277 397.40338795 -522.94005014 310.15447956 -513.8125 224.8125 C-513.29216367 220.52652191 -512.67860605 216.26363215 -512 212 C-511.82839355 210.91847656 -511.65678711 209.83695313 -511.47998047 208.72265625 C-498.4956005 129.91129901 -455.12902699 55.18833764 -391 7 C-390.2673291 6.44280273 -389.5346582 5.88560547 -388.77978516 5.31152344 C-379.14643039 -2.0059097 -369.46764815 -8.96213202 -358.92626953 -14.91259766 C-356.87939795 -16.06808131 -354.84435886 -17.24304146 -352.80859375 -18.41796875 C-267.77521389 -67.039595 -162.44637454 -74.25848632 0 0 Z M-296 95 C-297.53914063 96.2065625 -297.53914063 96.2065625 -299.109375 97.4375 C-322.28562665 116.10796143 -340.17479226 138.35100316 -353 165.125 C-353.38631592 165.93106689 -353.77263184 166.73713379 -354.1706543 167.56762695 C-354.52683838 168.33163818 -354.88302246 169.09564941 -355.25 169.8828125 C-355.56453125 170.55715332 -355.8790625 171.23149414 -356.203125 171.92626953 C-357.23222148 174.43021144 -357.23222148 174.43021144 -358 179 C-247.45 179 -136.9 179 -23 179 C-26.13679766 170.84432607 -29.13339463 163.21110329 -33.1875 155.5625 C-33.66453369 154.66072021 -34.14156738 153.75894043 -34.63305664 152.82983398 C-47.41178286 129.14682014 -66.47548764 108.95401414 -88 93 C-89.25876953 92.04867187 -89.25876953 92.04867187 -90.54296875 91.078125 C-113.30457681 74.45490705 -140.98447024 63.92302953 -169 61 C-170.01320313 60.89042969 -171.02640625 60.78085938 -172.0703125 60.66796875 C-216.01532757 56.61898088 -261.09755719 67.33818818 -296 95 Z " fill="#000000" transform="translate(1392,3091)"/>
<path d="M0 0 C1.16909912 0.02682861 1.16909912 0.02682861 2.36181641 0.05419922 C35.32890645 0.89385182 67.60523775 5.8102368 99 16 C100.35955811 16.43820068 100.35955811 16.43820068 101.74658203 16.88525391 C137.02090462 28.46014034 169.35353253 47.55300623 198 71 C198.82999512 71.67337402 198.82999512 71.67337402 199.67675781 72.36035156 C214.10726797 84.13194557 227.59498229 97.26412683 239 112 C239.89889543 113.09009227 240.8014893 114.17714145 241.70703125 115.26171875 C291.48389826 175.28384108 318 256.46783445 318 334 C150.03 334 -17.94 334 -191 334 C-185.35971454 381.00237881 -170.79565851 418.64489376 -138 453 C-137.18789062 453.86496094 -136.37578125 454.72992187 -135.5390625 455.62109375 C-124.78354932 466.77689302 -112.29287025 475.18105042 -99 483 C-98.39462402 483.35835937 -97.78924805 483.71671875 -97.16552734 484.0859375 C-80.69490914 493.70698486 -62.5603919 499.86031458 -44 504 C-42.980271 504.24556641 -42.980271 504.24556641 -41.93994141 504.49609375 C-3.55980204 513.50263312 41.839231 506.79129 77 490 C77.67498535 489.67773438 78.3499707 489.35546875 79.04541016 489.0234375 C88.73362232 484.30753309 97.45182448 478.53699435 106 472 C107.39992188 470.93845703 107.39992188 470.93845703 108.828125 469.85546875 C125.91293202 456.39244099 139.58764743 440.11834336 150.4375 421.3125 C150.90945801 420.49450928 151.38141602 419.67651855 151.86767578 418.83374023 C155.84803015 411.69998079 158.73398946 404.62069126 162 397 C212.16 397 262.32 397 314 397 C311.74410331 408.27948346 311.74410331 408.27948346 310.22265625 412.75 C309.88008789 413.75675781 309.53751953 414.76351562 309.18457031 415.80078125 C308.81428711 416.85652344 308.44400391 417.91226563 308.0625 419 C307.66772461 420.12792969 307.27294922 421.25585938 306.86621094 422.41796875 C294.06059627 458.38946935 277.07003337 492.52003126 254 523 C253.51644043 523.64195312 253.03288086 524.28390625 252.53466797 524.9453125 C246.87690268 532.41864392 240.90423587 539.4811087 234.49609375 546.3203125 C232.38088079 548.5911045 230.33278584 550.89529043 228.3125 553.25 C222.39172559 560.05889058 215.89669752 566.19455209 209 572 C208.49597656 572.43376953 207.99195312 572.86753906 207.47265625 573.31445312 C190.27231393 588.0717907 171.17936474 600.69315559 151 611 C149.71222656 611.66225586 149.71222656 611.66225586 148.3984375 612.33789062 C72.88073224 650.79598127 -22.63540163 658.89551193 -103.56396484 633.23901367 C-115.26069754 629.37415571 -126.69200408 624.8790749 -138 620 C-138.88961426 619.61650391 -139.77922852 619.23300781 -140.69580078 618.83789062 C-167.59025318 607.05159846 -192.64631086 590.99247749 -215 572 C-216.04749855 571.13719639 -217.09571432 570.27526301 -218.14453125 569.4140625 C-231.02707006 558.72997928 -243.59133825 547.00607758 -253.8449707 533.73754883 C-256.05731269 530.92719529 -258.36273052 528.21784645 -260.6875 525.5 C-265.92997902 519.27206795 -270.53044842 512.67718748 -275 505.875 C-275.38907532 505.28640198 -275.77815063 504.69780396 -276.17901611 504.09136963 C-282.62877115 494.32034173 -288.70870821 484.45130702 -294 474 C-294.70648682 472.61361328 -294.70648682 472.61361328 -295.42724609 471.19921875 C-334.73717407 393.41171931 -340.68205691 303.0651341 -314.09863281 220.18994141 C-299.64589366 176.46454626 -274.84714179 132.56215557 -241.4375 100.4375 C-239.75811554 98.80742138 -239.75811554 98.80742138 -237.5625 96 C-235.00220406 93.00258036 -232.33095779 90.57144091 -229.3359375 88.02734375 C-226.67230037 85.71559179 -224.12736524 83.29581117 -221.5625 80.875 C-162.59894185 26.32663308 -79.73292911 -1.99984446 0 0 Z M-112 157 C-112.54817383 157.43393066 -113.09634766 157.86786133 -113.66113281 158.31494141 C-135.36537492 175.62495333 -152.64710237 196.36752917 -165.25 221.125 C-165.56751221 221.74576416 -165.88502441 222.36652832 -166.2121582 223.00610352 C-168.97471245 228.59005159 -170.83144233 234.03646642 -173 240 C-62.45 240 48.1 240 162 240 C160.02262798 234.06788395 158.12951539 228.79045573 155.3125 223.3125 C154.96292236 222.62752441 154.61334473 221.94254883 154.25317383 221.23681641 C153.17989977 219.15185945 152.09265972 217.07485385 151 215 C150.67870117 214.38398926 150.35740234 213.76797852 150.02636719 213.13330078 C142.91409997 199.62885571 133.48406898 188.04119342 123 177 C122.52868652 176.50145508 122.05737305 176.00291016 121.57177734 175.48925781 C113.64092273 167.15565459 105.289119 159.78338362 96 153 C95.15477783 152.37230713 95.15477783 152.37230713 94.29248047 151.73193359 C68.22642646 132.57297276 35.29856703 121.91486089 3 121 C1.72640625 120.96003906 0.4528125 120.92007813 -0.859375 120.87890625 C-41.10112399 120.03865739 -80.43085064 131.72850963 -112 157 Z " fill="#000000" transform="translate(2949,3030)"/>
<path d="M0 0 C0.82161621 0.39735352 1.64323242 0.79470703 2.48974609 1.20410156 C22.75812653 11.05727102 41.72313574 23.53148239 59 38 C59.82927002 38.6791748 59.82927002 38.6791748 60.67529297 39.37207031 C69.35486066 46.49338935 77.417404 54.21342391 85.375 62.125 C86.29023438 63.03096924 87.20546875 63.93693848 88.1484375 64.87036133 C94.19111459 70.94103411 99.66682276 77.30306999 105 84 C106.01215561 85.2203338 107.02730944 86.43819399 108.046875 87.65234375 C124.47358936 107.4844515 137.38743583 130.12148356 148.5625 153.25 C149.06338135 154.28535889 149.5642627 155.32071777 150.08032227 156.38745117 C152.15796857 160.77042617 154.05919147 165.07780843 155.57823181 169.6864624 C155.97894598 170.89905039 155.97894598 170.89905039 156.38775539 172.1361351 C156.58979611 172.75121052 156.79183683 173.36628593 157 174 C136.68549861 174.25720925 116.37132856 174.4510572 96.05553532 174.56993389 C86.62199974 174.62660344 77.18947709 174.70383028 67.7565918 174.82983398 C59.53271101 174.93963533 51.30956386 175.01047748 43.08497041 175.03497344 C38.73149958 175.04928904 34.38012705 175.08281036 30.0273304 175.16303062 C25.92510893 175.23801637 21.82583751 175.26066854 17.72299576 175.24418449 C16.22209664 175.2471971 14.72109327 175.26890219 13.22078896 175.31126022 C1.90622303 175.61488432 1.90622303 175.61488432 -2.85084724 171.58486366 C-5.12960432 168.82049151 -7.08304629 166.02221067 -9 163 C-9.9269195 161.86116219 -10.87689844 160.74008466 -11.86328125 159.65234375 C-12.67152344 158.75644531 -13.47976563 157.86054688 -14.3125 156.9375 C-44.76227958 123.84741039 -91.51294455 109.82336174 -135.28515625 107.85205078 C-187.44014308 106.29019852 -235.32792322 124.615509 -273.4609375 160.20703125 C-306.66139813 191.89775428 -328.12165109 238.34245958 -329.203125 284.36328125 C-329.80219038 337.22132186 -311.13547396 384.34979659 -274.44921875 422.5546875 C-269.94983144 427.12490195 -265.1111824 431.1332794 -260 435 C-259.06929687 435.73476562 -258.13859375 436.46953125 -257.1796875 437.2265625 C-228.42249346 459.54214508 -191.40162139 474.97972509 -154.64453125 475.203125 C-153.86900406 475.21013931 -153.09347687 475.21715363 -152.29444885 475.22438049 C-149.80040628 475.24180915 -147.30660127 475.24823436 -144.8125 475.25 C-143.95996643 475.25067474 -143.10743286 475.25134949 -142.22906494 475.25204468 C-129.26825651 475.23574043 -116.70814879 474.76403573 -104 472 C-103.16952148 471.82307617 -102.33904297 471.64615234 -101.48339844 471.46386719 C-68.28810931 464.20278959 -39.11370549 450.06224996 -14.8125 426.0625 C-14.25425537 425.51368164 -13.69601074 424.96486328 -13.12084961 424.39941406 C-10.60993295 421.8689701 -8.3324547 419.53671705 -6.44454956 416.48887062 C-3.75139919 412.32548092 -1.68897873 409.47907513 3.20069885 408.09212875 C7.19915467 407.76894561 11.13287224 407.7608951 15.13671875 407.86474609 C16.66497104 407.86757026 18.19323689 407.86597678 19.72148132 407.86032104 C23.8522431 407.85746177 27.98007728 407.91607677 32.11016083 407.98606062 C36.43282559 408.04874842 40.7555641 408.05446138 45.07861328 408.0663147 C53.25653831 408.0973459 61.43312001 408.17933573 69.61045456 408.27980959 C78.92345271 408.39174314 88.23651642 408.44660549 97.55002022 408.49676394 C116.70077394 408.6011756 135.85027882 408.77696651 155 409 C154.30106422 412.76856655 153.2967101 415.8283308 151.62890625 419.2890625 C150.89909546 420.81043823 150.89909546 420.81043823 150.15454102 422.36254883 C149.62916748 423.43915771 149.10379395 424.5157666 148.5625 425.625 C148.01972412 426.74221436 147.47694824 427.85942871 146.91772461 429.01049805 C145.2891092 432.3456907 143.64782798 435.67426302 142 439 C141.55914063 439.89251465 141.11828125 440.7850293 140.6640625 441.70458984 C134.33882363 454.40794578 126.98113099 466.27375999 119 478 C118.3188916 479.00401855 118.3188916 479.00401855 117.62402344 480.02832031 C112.37486566 487.71302363 106.71280419 494.91592186 100.6171875 501.9453125 C98.33547899 504.58082506 96.19934028 507.30777819 94.0625 510.0625 C84.2555513 522.10394333 72.74793205 533.58160028 60.4609375 543.08984375 C57.75436199 545.19066188 55.20647158 547.4350395 52.625 549.6875 C-1.79010842 594.97491282 -74.69310958 615.20265589 -144.5 615.25 C-145.40017853 615.25067474 -146.30035706 615.25134949 -147.22781372 615.25204468 C-220.49718287 615.16538137 -292.02174672 590.37939614 -349 544 C-349.51401367 543.58218262 -350.02802734 543.16436523 -350.55761719 542.73388672 C-380.40438202 518.33795832 -405.77310246 489.47967233 -425 456 C-425.72268066 454.74993164 -425.72268066 454.74993164 -426.45996094 453.47460938 C-469.63207912 378.25344314 -480.27902741 287.61889567 -457.72265625 203.9375 C-452.65354578 186.04159614 -446.1996742 168.69263493 -438 152 C-437.28070312 150.53264404 -437.28070312 150.53264404 -436.546875 149.03564453 C-424.46569948 124.62541585 -409.98060598 100.20331022 -391.16015625 80.30078125 C-389.3340133 78.35575739 -387.5938779 76.37397419 -385.85546875 74.3515625 C-375.34549834 62.29835592 -363.77871907 50.64164102 -351 41 C-349.69540631 39.98071126 -348.39213347 38.95973075 -347.08984375 37.9375 C-328.00630882 23.0390464 -307.71291882 10.37362882 -285.86914062 -0.10009766 C-284.07768512 -0.96259831 -282.29637751 -1.84608157 -280.515625 -2.73046875 C-196.60047216 -43.47593741 -86.22788711 -42.46118211 0 0 Z " fill="#000000" transform="translate(2403,3062)"/>
<path d="M0 0 C46.53 0 93.06 0 141 0 C141 274.56 141 549.12 141 832 C94.47 832 47.94 832 0 832 C0 557.44 0 282.88 0 0 Z " fill="#000000" transform="translate(3612,2820)"/>
<path d="M0 0 C46.53 0 93.06 0 141 0 C141 274.56 141 549.12 141 832 C94.47 832 47.94 832 0 832 C0 557.44 0 282.88 0 0 Z " fill="#000000" transform="translate(3350,2820)"/>
<path d="M0 0 C2.39062786 -0.38031673 2.39062786 -0.38031673 5.45451355 -0.38768005 C6.61356705 -0.39758469 7.77262054 -0.40748932 8.96679688 -0.41769409 C10.24514404 -0.41319244 11.52349121 -0.4086908 12.84057617 -0.40405273 C14.19583195 -0.4097533 15.55108293 -0.41671634 16.90632629 -0.42485046 C20.59724867 -0.44285304 24.28793415 -0.44159774 27.97888732 -0.43590808 C31.06685419 -0.43281978 34.15477532 -0.43890619 37.24273568 -0.44494683 C44.54231475 -0.4590199 51.84177693 -0.45741381 59.14135742 -0.44604492 C66.64160013 -0.43462056 74.14148289 -0.44853644 81.64167804 -0.4754414 C88.09627729 -0.49771862 94.55076462 -0.50420717 101.00539953 -0.49836498 C104.85293722 -0.49501548 108.70024549 -0.49727236 112.54775047 -0.51461601 C116.17993746 -0.5302705 119.81160176 -0.52592895 123.44376945 -0.50731087 C125.38629892 -0.50195966 127.32885286 -0.51600638 129.27133179 -0.53100586 C145.69306469 -0.39594518 160.80875474 4.39457812 172.9375 15.80859375 C190.36064159 34.32068169 191.64047967 57.47182502 191.14941406 81.56201172 C190.83680885 88.75499643 189.83620579 95.95788256 186.8359375 102.5625 C185.81277976 105.54591322 185.98488517 107.03163103 187 110 C188.39955255 111.87325166 188.39955255 111.87325166 190.1875 113.5625 C200.35058425 124.74605787 204.47261696 141.14155597 205 156 C205.03996094 157.0415625 205.07992187 158.083125 205.12109375 159.15625 C205.52860451 180.44269431 201.83735086 200.60160264 186.875 216.6875 C173.31366652 229.51330353 158.40678182 233.64387319 140.11206055 233.45410156 C138.56336497 233.45297036 137.01466725 233.45361226 135.4659729 233.45587158 C131.30345936 233.45700902 127.14141644 233.43365902 122.9790113 233.40557575 C118.61353999 233.38039839 114.2480553 233.37820733 109.88252258 233.37347412 C101.63447383 233.36109197 93.38663972 233.32833554 85.13868505 233.28807616 C75.74076934 233.24320936 66.34284283 233.22133409 56.94484651 233.20129442 C37.62977645 233.15959811 18.31490554 233.0893397 -1 233 C-2.68282346 229.63435308 -2.14023226 225.82554886 -2.13371277 222.12391663 C-2.13597833 221.19327454 -2.13824388 220.26263245 -2.14057809 219.30378908 C-2.14693939 216.1661367 -2.14608737 213.02852728 -2.14526367 209.89086914 C-2.14825382 207.64916426 -2.15165601 205.4074599 -2.15544128 203.16575623 C-2.1642998 197.06255934 -2.16662016 190.95937645 -2.16725707 184.85617375 C-2.1682046 179.76888773 -2.17188106 174.681605 -2.17542917 169.59432024 C-2.18311457 158.28278915 -2.18609715 146.97126677 -2.18542381 135.65973396 C-2.18538386 134.98061794 -2.1853439 134.30150193 -2.18530273 133.60180664 C-2.18526185 132.92186441 -2.18522097 132.24192217 -2.18517885 131.54137563 C-2.18477227 120.5180872 -2.19434427 109.4948329 -2.2084411 98.47155435 C-2.22279131 87.16117888 -2.22952873 75.85082527 -2.22884732 64.54043859 C-2.22859176 58.18718689 -2.23147529 51.83397381 -2.24202538 45.48073006 C-2.25167248 39.5078841 -2.25180892 33.53511395 -2.24450874 27.5622654 C-2.24345869 25.3656071 -2.24585051 23.16894416 -2.2518692 20.97229385 C-2.25953287 17.98246102 -2.25498185 14.99289372 -2.24723816 12.00306702 C-2.25238172 11.12603357 -2.25752529 10.24900012 -2.26282471 9.3453899 C-2.22827142 3.34240713 -2.22827142 3.34240713 0 0 Z M46 47 C46 62.18 46 77.36 46 93 C59.4169589 93.11651664 59.4169589 93.11651664 72.83398438 93.1953125 C78.31355457 93.21914098 83.79285512 93.24720257 89.2722168 93.30175781 C93.69428635 93.3455061 98.11606638 93.36919773 102.5383358 93.37950897 C104.21789794 93.38684871 105.89744584 93.40118034 107.57688332 93.42292023 C119.40309952 93.56979422 130.49474285 92.84183715 140 85 C144.49451319 78.80067146 144.53701528 72.43559617 144 65 C142.7774146 57.95790811 138.69572285 54.03633903 133 50 C127.17990309 46.95137781 120.79622195 46.8528014 114.34228516 46.88647461 C113.60013763 46.88632858 112.85799011 46.88618256 112.09335327 46.8860321 C109.65855917 46.88672461 107.22384311 46.89448581 104.7890625 46.90234375 C103.09369956 46.90421028 101.39833608 46.90563308 99.70297241 46.90663147 C95.25439956 46.91043811 90.80585968 46.92025249 86.3572998 46.93133545 C81.01246319 46.94339434 75.66761551 46.94796064 70.32276917 46.95378876 C62.21515655 46.96346531 54.10761621 46.98263481 46 47 Z M46 140 C46 155.18 46 170.36 46 186 C61.57420256 186.08734099 61.57420256 186.08734099 77.1484375 186.14648438 C83.50593634 186.16437769 89.86330484 186.18548484 96.22070312 186.22631836 C101.34949289 186.25905222 106.47814275 186.27688253 111.60702896 186.28463173 C113.55812912 186.29015013 115.50922213 186.30092593 117.4602623 186.31719017 C136.48671456 186.62809022 136.48671456 186.62809022 153 178 C157.63806869 172.60202175 157.60890974 166.18560984 157.375 159.34375 C156.63087875 152.70866885 154.38096964 148.84693959 149.25 144.625 C142.95550987 139.89090868 135.29154499 139.70688852 127.73828125 139.77294922 C126.84953812 139.77265717 125.96079498 139.77236511 125.04512024 139.77206421 C122.13414433 139.77344742 119.22343069 139.78896075 116.3125 139.8046875 C114.28369283 139.80842122 112.25488384 139.8112665 110.22607422 139.81326294 C104.90617833 139.82087111 99.58639298 139.84049527 94.26654053 139.8626709 C87.87292261 139.88680272 81.47926757 139.89592372 75.08561707 139.90757751 C65.39033468 139.92692139 55.69529447 139.96526367 46 140 Z " fill="#000000" transform="translate(2713,3891)"/>
<path d="M0 0 C2.39062786 -0.38031673 2.39062786 -0.38031673 5.45451355 -0.38768005 C6.61356705 -0.39758469 7.77262054 -0.40748932 8.96679688 -0.41769409 C10.24514404 -0.41319244 11.52349121 -0.4086908 12.84057617 -0.40405273 C14.19583195 -0.4097533 15.55108293 -0.41671634 16.90632629 -0.42485046 C20.59724867 -0.44285304 24.28793415 -0.44159774 27.97888732 -0.43590808 C31.06685419 -0.43281978 34.15477532 -0.43890619 37.24273568 -0.44494683 C44.54231475 -0.4590199 51.84177693 -0.45741381 59.14135742 -0.44604492 C66.64160013 -0.43462056 74.14148289 -0.44853644 81.64167804 -0.4754414 C88.09627729 -0.49771862 94.55076462 -0.50420717 101.00539953 -0.49836498 C104.85293722 -0.49501548 108.70024549 -0.49727236 112.54775047 -0.51461601 C116.17993746 -0.5302705 119.81160176 -0.52592895 123.44376945 -0.50731087 C125.38629892 -0.50195966 127.32885286 -0.51600638 129.27133179 -0.53100586 C145.69306469 -0.39594518 160.80875474 4.39457812 172.9375 15.80859375 C190.36064159 34.32068169 191.64047967 57.47182502 191.14941406 81.56201172 C190.83680885 88.75499643 189.83620579 95.95788256 186.8359375 102.5625 C185.81277976 105.54591322 185.98488517 107.03163103 187 110 C188.39955255 111.87325166 188.39955255 111.87325166 190.1875 113.5625 C200.35058425 124.74605787 204.47261696 141.14155597 205 156 C205.03996094 157.0415625 205.07992187 158.083125 205.12109375 159.15625 C205.52860451 180.44269431 201.83735086 200.60160264 186.875 216.6875 C173.31366652 229.51330353 158.40678182 233.64387319 140.11206055 233.45410156 C138.56336497 233.45297036 137.01466725 233.45361226 135.4659729 233.45587158 C131.30345936 233.45700902 127.14141644 233.43365902 122.9790113 233.40557575 C118.61353999 233.38039839 114.2480553 233.37820733 109.88252258 233.37347412 C101.63447383 233.36109197 93.38663972 233.32833554 85.13868505 233.28807616 C75.74076934 233.24320936 66.34284283 233.22133409 56.94484651 233.20129442 C37.62977645 233.15959811 18.31490554 233.0893397 -1 233 C-2.68282346 229.63435308 -2.14023226 225.82554886 -2.13371277 222.12391663 C-2.13597833 221.19327454 -2.13824388 220.26263245 -2.14057809 219.30378908 C-2.14693939 216.1661367 -2.14608737 213.02852728 -2.14526367 209.89086914 C-2.14825382 207.64916426 -2.15165601 205.4074599 -2.15544128 203.16575623 C-2.1642998 197.06255934 -2.16662016 190.95937645 -2.16725707 184.85617375 C-2.1682046 179.76888773 -2.17188106 174.681605 -2.17542917 169.59432024 C-2.18311457 158.28278915 -2.18609715 146.97126677 -2.18542381 135.65973396 C-2.18538386 134.98061794 -2.1853439 134.30150193 -2.18530273 133.60180664 C-2.18526185 132.92186441 -2.18522097 132.24192217 -2.18517885 131.54137563 C-2.18477227 120.5180872 -2.19434427 109.4948329 -2.2084411 98.47155435 C-2.22279131 87.16117888 -2.22952873 75.85082527 -2.22884732 64.54043859 C-2.22859176 58.18718689 -2.23147529 51.83397381 -2.24202538 45.48073006 C-2.25167248 39.5078841 -2.25180892 33.53511395 -2.24450874 27.5622654 C-2.24345869 25.3656071 -2.24585051 23.16894416 -2.2518692 20.97229385 C-2.25953287 17.98246102 -2.25498185 14.99289372 -2.24723816 12.00306702 C-2.25238172 11.12603357 -2.25752529 10.24900012 -2.26282471 9.3453899 C-2.22827142 3.34240713 -2.22827142 3.34240713 0 0 Z M46 47 C46 62.18 46 77.36 46 93 C59.4169589 93.11651664 59.4169589 93.11651664 72.83398438 93.1953125 C78.31355457 93.21914098 83.79285512 93.24720257 89.2722168 93.30175781 C93.69428635 93.3455061 98.11606638 93.36919773 102.5383358 93.37950897 C104.21789794 93.38684871 105.89744584 93.40118034 107.57688332 93.42292023 C119.40309952 93.56979422 130.49474285 92.84183715 140 85 C144.49451319 78.80067146 144.53701528 72.43559617 144 65 C142.7774146 57.95790811 138.69572285 54.03633903 133 50 C127.17990309 46.95137781 120.79622195 46.8528014 114.34228516 46.88647461 C113.60013763 46.88632858 112.85799011 46.88618256 112.09335327 46.8860321 C109.65855917 46.88672461 107.22384311 46.89448581 104.7890625 46.90234375 C103.09369956 46.90421028 101.39833608 46.90563308 99.70297241 46.90663147 C95.25439956 46.91043811 90.80585968 46.92025249 86.3572998 46.93133545 C81.01246319 46.94339434 75.66761551 46.94796064 70.32276917 46.95378876 C62.21515655 46.96346531 54.10761621 46.98263481 46 47 Z M46 140 C46 155.18 46 170.36 46 186 C61.57420256 186.08734099 61.57420256 186.08734099 77.1484375 186.14648438 C83.50593634 186.16437769 89.86330484 186.18548484 96.22070312 186.22631836 C101.34949289 186.25905222 106.47814275 186.27688253 111.60702896 186.28463173 C113.55812912 186.29015013 115.50922213 186.30092593 117.4602623 186.31719017 C136.48671456 186.62809022 136.48671456 186.62809022 153 178 C157.63806869 172.60202175 157.60890974 166.18560984 157.375 159.34375 C156.63087875 152.70866885 154.38096964 148.84693959 149.25 144.625 C142.95550987 139.89090868 135.29154499 139.70688852 127.73828125 139.77294922 C126.84953812 139.77265717 125.96079498 139.77236511 125.04512024 139.77206421 C122.13414433 139.77344742 119.22343069 139.78896075 116.3125 139.8046875 C114.28369283 139.80842122 112.25488384 139.8112665 110.22607422 139.81326294 C104.90617833 139.82087111 99.58639298 139.84049527 94.26654053 139.8626709 C87.87292261 139.88680272 81.47926757 139.89592372 75.08561707 139.90757751 C65.39033468 139.92692139 55.69529447 139.96526367 46 140 Z " fill="#000000" transform="translate(1915,3891)"/>
<path d="M0 0 C0.86066574 0.00022659 1.72133148 0.00045319 2.608078 0.00068665 C3.99571098 0.02391243 3.99571098 0.02391243 5.41137695 0.04760742 C6.83665459 0.05397469 6.83665459 0.05397469 8.29072571 0.06047058 C11.32732408 0.07727133 14.36326022 0.11492625 17.3996582 0.15307617 C19.45759133 0.1681212 21.51553485 0.18180992 23.57348633 0.1940918 C28.61996568 0.22717947 33.66594964 0.27897155 38.7121582 0.34057617 C44.62298909 11.98104763 50.23778608 23.73920255 55.7121582 35.59057617 C56.12123413 36.47397675 56.53031006 37.35737732 56.95178223 38.26754761 C63.07477649 51.49464109 69.05642901 64.77897265 74.93765259 78.11508179 C80.65299148 91.06876025 86.58901783 103.90887771 92.64266968 116.70762634 C94.00235719 119.58377365 95.35712138 122.46223553 96.7121582 125.34057617 C97.21827637 126.40775879 97.72439453 127.47494141 98.24584961 128.57446289 C98.70523926 129.55817871 99.16462891 130.54189453 99.63793945 131.55541992 C100.04052979 132.41127686 100.44312012 133.26713379 100.85791016 134.14892578 C101.7121582 136.34057617 101.7121582 136.34057617 101.7121582 139.34057617 C102.3721582 139.34057617 103.0321582 139.34057617 103.7121582 139.34057617 C103.97230713 138.5056665 104.23245605 137.67075684 104.50048828 136.81054688 C105.818731 133.03537386 107.41206512 129.44062476 109.09887695 125.82104492 C109.4324118 125.09841965 109.76594666 124.37579437 110.10958862 123.63127136 C110.82822496 122.07506746 111.5482613 120.51950944 112.26956177 118.96453857 C114.20729612 114.78682705 116.13459668 110.60429992 118.0637207 106.42260742 C118.45670853 105.57154419 118.84969635 104.72048096 119.2545929 103.84362793 C122.96000077 95.8154277 126.62265963 87.76817905 130.2746582 79.71557617 C131.50090032 77.01360776 132.72753949 74.31181976 133.9543457 71.61010742 C134.25914856 70.93882812 134.56395142 70.26754883 134.87799072 69.57592773 C162.49756463 8.76976332 162.49756463 8.76976332 166.7121582 0.34057617 C172.78107512 0.29118287 178.84987533 0.25485974 184.91894531 0.23071289 C186.98407021 0.22064782 189.04918083 0.20699463 191.11425781 0.18969727 C194.08052084 0.16547124 197.04659564 0.1540982 200.01293945 0.14526367 C200.93802811 0.1349411 201.86311676 0.12461853 202.8162384 0.11398315 C203.67690414 0.11383209 204.53756989 0.11368103 205.42431641 0.11352539 C206.18154495 0.10908417 206.9387735 0.10464294 207.71894836 0.10006714 C209.7121582 0.34057617 209.7121582 0.34057617 212.7121582 2.34057617 C213.00843589 5.39570028 213.10737924 8.24833359 213.07965088 11.30604553 C213.08455414 12.71637602 213.08455414 12.71637602 213.08955646 14.15519804 C213.09687549 17.32530607 213.08264346 20.49495881 213.06860352 23.66503906 C213.06939384 25.92969339 213.07148941 28.19434759 213.07479858 30.45899963 C213.07994742 36.62410523 213.06636801 42.78904487 213.04927158 48.95412374 C213.03427716 55.39189208 213.03541061 61.82965791 213.03460693 68.2674408 C213.03091039 79.07936786 213.01601375 89.89122296 212.9934082 100.703125 C212.97014368 111.83822148 212.95598288 122.97327785 212.95239258 134.10839844 C212.95216981 134.79431657 212.95194704 135.4802347 212.95171753 136.18693823 C212.95127494 137.56864273 212.95083292 138.95034722 212.95039146 140.33205172 C212.95017189 141.01356406 212.94995232 141.69507641 212.9497261 142.39724064 C212.94940213 143.41685481 212.94940213 143.41685481 212.9490716 144.45706725 C212.94515102 155.69329338 212.93245043 166.92951152 212.91937923 178.16573024 C212.91527246 182.01079136 212.9123508 185.85585208 212.90958405 189.70091438 C212.90470478 195.73119955 212.89452471 201.76145348 212.88014603 207.79172325 C212.87560829 210.01179345 212.8727809 212.23186786 212.87173843 214.45194244 C212.8700034 217.46869025 212.8621489 220.48535879 212.8526001 223.50209045 C212.85346658 224.39273148 212.85433306 225.28337251 212.8552258 226.20100266 C212.82636536 232.22636902 212.82636536 232.22636902 211.7121582 233.34057617 C210.305406 233.43862468 208.89380685 233.46855804 207.48364258 233.4699707 C206.13719666 233.47469894 206.13719666 233.47469894 204.7635498 233.47952271 C203.78752808 233.47749847 202.81150635 233.47547424 201.8059082 233.47338867 C200.3133551 233.47482376 200.3133551 233.47482376 198.79064941 233.47628784 C196.68229103 233.47696977 194.57393055 233.47511461 192.46557617 233.47094727 C189.22610793 233.4655992 185.98677835 233.47089185 182.74731445 233.47729492 C180.7043454 233.47663414 178.66137642 233.47535298 176.6184082 233.47338867 C175.64238647 233.4754129 174.66636475 233.47743713 173.6607666 233.47952271 C172.76313599 233.47637054 171.86550537 233.47321838 170.94067383 233.4699707 C170.14649048 233.46917511 169.35230713 233.46837952 168.53405762 233.46755981 C166.7121582 233.34057617 166.7121582 233.34057617 165.7121582 232.34057617 C165.60399963 230.73409102 165.56531275 229.12288394 165.55393982 227.51280212 C165.53925659 225.94570747 165.53925659 225.94570747 165.52427673 224.34695435 C165.51852127 223.19105804 165.51276581 222.03516174 165.50683594 220.84423828 C165.49693634 219.63464951 165.48703674 218.42506073 165.47683716 217.17881775 C165.45058664 213.85254195 165.42875064 210.52629096 165.40883517 207.19997478 C165.38701325 203.72724838 165.35960606 200.2545663 165.33277893 196.78187561 C165.28280058 190.2016464 165.2378809 183.62139265 165.19475657 177.04111534 C165.14542804 169.55148358 165.09049371 162.06189627 165.03507698 154.57230747 C164.92117802 139.16177141 164.81435631 123.75119453 164.7121582 108.34057617 C164.34381772 109.13489737 163.97547724 109.92921856 163.59597492 110.74761009 C162.20598363 113.74463571 160.8156536 116.74150373 159.425107 119.73827171 C158.82768617 121.02594798 158.23039354 122.31368373 157.6332407 123.6014843 C152.98374599 133.62810115 148.28418566 143.62965588 143.52563477 153.60501099 C141.51569338 157.81877335 139.51041718 162.03475509 137.50512695 166.25073242 C137.10232513 167.09746017 136.69952332 167.94418793 136.28451538 168.8165741 C132.23536107 177.33365313 128.22118172 185.86705234 124.2121582 194.40307617 C118.1027436 207.4099136 111.94005289 220.3899347 105.7121582 233.34057617 C104.0621582 233.34057617 102.4121582 233.34057617 100.7121582 233.34057617 C94.56911094 222.22912118 89.09595428 210.87007946 83.79345703 199.33569336 C80.01860993 191.12797762 76.15362457 182.97007389 72.2121582 174.84057617 C67.24782069 164.59012466 62.39924332 154.29134422 57.63989258 143.9440918 C54.15719935 136.38975456 50.58926171 128.87894651 46.99584961 121.37670898 C46.48681595 120.31320221 45.97778229 119.24969543 45.45332336 118.15396118 C44.20659818 115.54934137 42.95953469 112.94488412 41.7121582 110.34057617 C41.70792626 110.96233419 41.70369432 111.58409222 41.69933414 112.22469139 C41.59612506 127.33859673 41.48750204 142.45245257 41.37281895 157.56627464 C41.31749075 164.87514002 41.26400943 172.18401028 41.21484375 179.49291992 C41.17199696 185.86178092 41.12571772 192.23060603 41.07527965 198.59941161 C41.04868269 201.97306608 41.02382973 205.34671345 41.00308418 208.72040939 C40.97908942 212.48235816 40.94902815 216.2442116 40.91748047 220.00610352 C40.91172501 221.13035233 40.90596954 222.25460114 40.90003967 223.41291809 C40.89025085 224.43378006 40.88046204 225.45464203 40.87037659 226.50643921 C40.86392404 227.39689123 40.85747149 228.28734325 40.8508234 229.20477867 C40.7121582 231.34057617 40.7121582 231.34057617 39.7121582 233.34057617 C24.5321582 233.34057617 9.3521582 233.34057617 -6.2878418 233.34057617 C-7.97060655 229.97504667 -7.43193159 226.16620013 -7.42828369 222.4644928 C-7.43125481 221.53385071 -7.43422594 220.60320862 -7.43728709 219.64436525 C-7.44600145 216.50671632 -7.44748463 213.36910541 -7.44897461 210.23144531 C-7.45360078 207.98974017 -7.45862517 205.74803582 -7.46401978 203.5063324 C-7.47716358 197.40313855 -7.48359238 191.29995572 -7.48803043 185.19674993 C-7.49095746 181.38787833 -7.49506152 177.57900977 -7.49953461 173.77013969 C-7.51164541 163.22983584 -7.52202726 152.68953462 -7.5254097 142.14922428 C-7.52562926 141.47443384 -7.52584883 140.79964341 -7.52607505 140.10440477 C-7.52629333 139.42797921 -7.52651161 138.75155365 -7.5267365 138.05463034 C-7.52717997 136.68388116 -7.52762653 135.31313199 -7.52807617 133.94238281 C-7.5282976 133.26244058 -7.52851903 132.58249835 -7.52874717 131.8819518 C-7.53269718 120.85864753 -7.55015725 109.83540928 -7.57343569 98.81213052 C-7.5971282 87.50175357 -7.60935237 76.19142095 -7.61077762 64.88101476 C-7.61182833 58.52773989 -7.61779261 52.17455813 -7.63559723 45.82130623 C-7.65200993 39.84843489 -7.65426665 33.87572735 -7.64545822 27.90284157 C-7.64468423 25.70617994 -7.64907778 23.50950975 -7.65891647 21.31287003 C-7.67152688 18.32292944 -7.66581892 15.33357866 -7.65533447 12.34364319 C-7.66339088 11.46660974 -7.67144728 10.58957629 -7.67974782 9.68596607 C-7.63089557 3.76311054 -7.63089557 3.76311054 -5.88917136 1.61785406 C-3.81114877 -0.03965128 -2.63811764 -0.02320925 0 0 Z " fill="#000000" transform="translate(2441.287841796875,3890.659423828125)"/>
<path d="M0 0 C70.95 0 141.9 0 215 0 C215 45.54 215 91.08 215 138 C144.05 138 73.1 138 0 138 C0 92.46 0 46.92 0 0 Z " fill="#000000" transform="translate(1631,3273)"/>
<path d="M0 0 C5.0515685 4.75575593 8.96239522 10.42309828 12.859375 16.1328125 C13.64828125 17.25236328 13.64828125 17.25236328 14.453125 18.39453125 C31.41390197 44.24167274 34.09261645 82.40185216 28.33764648 112.18603516 C27.89422025 114.18499574 27.39492923 116.15660294 26.859375 118.1328125 C26.66069824 118.86806152 26.46202148 119.60331055 26.25732422 120.36083984 C21.80156929 136.18461073 15.00201178 149.93536501 3.859375 162.1328125 C3.16199219 162.91140625 2.46460937 163.69 1.74609375 164.4921875 C-13.30376078 180.44998572 -33.44298561 189.1730446 -54.140625 195.1328125 C-54.9135791 195.3601709 -55.6865332 195.5875293 -56.48291016 195.82177734 C-86.86295292 204.43839728 -121.27829596 199.00786297 -148.92578125 184.19775391 C-173.8016333 170.16749999 -191.57881183 147.16835501 -199.296875 119.72265625 C-207.23617559 85.9438727 -205.34651147 48.37668503 -187.140625 18.1328125 C-169.6611014 -8.6265909 -142.57747214 -23.40273037 -112.140625 -30.8671875 C-111.06425781 -31.13273437 -109.98789063 -31.39828125 -108.87890625 -31.671875 C-70.06924092 -39.2369099 -29.20436245 -25.4738782 0 0 Z M-141.4140625 37.76171875 C-155.0816685 55.62106265 -157.5914027 76.6814584 -154.83154297 98.5859375 C-152.38467529 112.28589652 -145.92513071 123.44970063 -136.140625 133.1328125 C-135.54894531 133.75800781 -134.95726563 134.38320312 -134.34765625 135.02734375 C-125.69733146 143.48671214 -112.8646251 148.82384134 -101.140625 151.1328125 C-99.47 151.473125 -99.47 151.473125 -97.765625 151.8203125 C-76.98294058 153.61192323 -56.63820839 149.34262126 -40.140625 136.1328125 C-39.45742187 135.63523437 -38.77421875 135.13765625 -38.0703125 134.625 C-26.07396043 125.26314093 -20.2423462 110.72308281 -17.890625 96.1328125 C-15.27691353 74.84973337 -19.09110579 55.64295556 -31.62109375 38.0546875 C-42.1454257 24.85379705 -59.77577416 16.74052598 -76.140625 14.1328125 C-99.96112859 11.54953871 -125.47485044 19.33029312 -141.4140625 37.76171875 Z " fill="#000000" transform="translate(2361.140625,3924.8671875)"/>
<path d="M0 0 C3.367301 1.59236824 4.33905609 4.70655795 5.82617188 7.94189453 C6.16886108 8.65741486 6.51155029 9.37293518 6.86462402 10.11013794 C7.59131949 11.63184485 8.3115766 13.15664054 9.02587891 14.6842041 C10.06468842 16.90521636 11.11986353 19.11752734 12.18164062 21.32763672 C14.34232879 25.83348026 16.47584673 30.3519108 18.60742188 34.87158203 C19.39562683 36.53944716 20.18395951 38.20725193 20.97241211 39.875 C26.70860707 52.01307558 32.42659027 64.15975758 38.13891602 76.30908203 C42.93112411 86.50121677 47.73459655 96.68798587 52.54492188 106.87158203 C52.89707764 107.61714355 53.2492334 108.36270508 53.61206055 109.13085938 C56.11018317 114.41959006 58.60874652 119.70811247 61.10742188 124.99658203 C75.58792352 155.64469804 75.58792352 155.64469804 82.20507812 169.69189453 C82.53997757 170.40280746 82.87487701 171.1137204 83.21992493 171.84617615 C84.88016026 175.37153396 86.53855022 178.8977433 88.19360352 182.42553711 C91.22735043 188.89017926 94.27039661 195.34964921 97.35543823 201.79000854 C98.77275962 204.75119999 100.18289414 207.71578453 101.59222412 210.68078613 C102.26244308 212.08585649 102.9360843 213.48930017 103.61334229 214.89099121 C104.54723213 216.82447933 105.46914605 218.76326228 106.38867188 220.70361328 C106.91525391 221.80165283 107.44183594 222.89969238 107.984375 224.03100586 C109.0939635 226.96104313 109.43910512 228.90098792 109.10742188 231.99658203 C108.10742188 232.99658203 108.10742188 232.99658203 106.27879333 233.11683655 C105.48159378 233.11461594 104.68439423 233.11239532 103.86303711 233.11010742 C102.9621788 233.11003189 102.0613205 233.10995636 101.13316345 233.10987854 C100.15400467 233.10471725 99.17484589 233.09955597 98.16601562 233.09423828 C97.16860855 233.09282333 96.17120148 233.09140839 95.14356995 233.08995056 C91.94399064 233.08433317 88.74448019 233.07177774 85.54492188 233.05908203 C83.38151142 233.05406927 81.21809988 233.04950598 79.0546875 233.04541016 C73.73890862 233.0343581 68.42317017 233.01760307 63.10742188 232.99658203 C61.91424672 230.66601653 60.72801438 228.33226373 59.54492188 225.99658203 C59.22201172 225.36751953 58.89910156 224.73845703 58.56640625 224.09033203 C54.74014495 216.51069059 51.53027989 208.8202575 48.10742188 200.99658203 C16.09742187 200.99658203 -15.91257812 200.99658203 -48.89257812 200.99658203 C-56.31757813 216.83658203 -56.31757813 216.83658203 -63.89257812 232.99658203 C-70.26482705 233.04242555 -76.63650679 233.08227125 -83.00878906 233.10644531 C-85.17775407 233.11651992 -87.34670544 233.13018001 -89.515625 233.14746094 C-92.62828938 233.17164526 -95.74077464 233.18305035 -98.85351562 233.19189453 C-99.82751312 233.2022171 -100.80151062 233.21253967 -101.80502319 233.22317505 C-102.70580597 233.22332611 -103.60658875 233.22347717 -104.53466797 233.22363281 C-105.72713638 233.23029465 -105.72713638 233.23029465 -106.94369507 233.23709106 C-108.89257812 232.99658203 -108.89257812 232.99658203 -110.89257812 230.99658203 C-110.5711102 226.26812073 -108.23730298 222.14992448 -106.20117188 217.95361328 C-105.82451889 217.16562851 -105.44786591 216.37764374 -105.05979919 215.56578064 C-103.82155978 212.97778498 -102.57571806 210.39352267 -101.33007812 207.80908203 C-100.46173426 205.99657643 -99.59406642 204.18374681 -98.72705078 202.37060547 C-97.40132233 199.59823432 -96.07525893 196.82603106 -94.74719238 194.05477905 C-90.71393724 185.63740125 -86.73330308 177.19593302 -82.76757812 168.74658203 C-81.46327099 165.97036154 -80.15842821 163.19439298 -78.85351562 160.41845703 C-78.53059036 159.73136154 -78.2076651 159.04426605 -77.87495422 158.33634949 C-74.05836525 150.21796223 -70.22513561 142.10743938 -66.39257812 133.99658203 C-60.88247507 122.33465337 -55.38189973 110.66830688 -49.89257812 98.99658203 C-44.42288334 87.36709945 -38.94362727 75.74217842 -33.45507812 64.12158203 C-33.10700104 63.38451019 -32.75892395 62.64743835 -32.40029907 61.88803101 C-28.72526233 54.10600734 -25.0484198 46.32484319 -21.36738586 38.5456543 C-19.81191687 35.25812998 -18.25722127 31.97024021 -16.7026062 28.68231201 C-15.9643288 27.12145835 -15.22567175 25.56078419 -14.48660278 24.00030518 C-13.45822042 21.82893771 -12.43103433 19.65700895 -11.40429688 17.48486328 C-10.92987907 16.48326172 -10.92987907 16.48326172 -10.44587708 15.46142578 C-8.74083379 11.84787724 -7.10765287 8.21330715 -5.53710938 4.53955078 C-3.42712416 -0.00618934 -3.42712416 -0.00618934 0 0 Z M-0.89257812 93.99658203 C-6.58499153 105.12643717 -11.90479308 116.39370088 -17.02172852 127.79907227 C-18.21582369 130.45800959 -19.41818971 133.11310448 -20.62109375 135.76806641 C-21.39567905 137.48854597 -22.16978511 139.20924139 -22.94335938 140.93017578 C-23.29650711 141.70848251 -23.64965485 142.48678925 -24.01350403 143.28868103 C-24.34782944 144.03718826 -24.68215485 144.7856955 -25.02661133 145.55688477 C-25.31558792 146.19923569 -25.60456451 146.84158661 -25.90229797 147.50340271 C-27.39931524 151.27236898 -28.61015201 155.14930369 -29.89257812 158.99658203 C-10.42257813 158.99658203 9.04742188 158.99658203 29.10742188 158.99658203 C27.46533501 154.02299207 27.46533501 154.02299207 25.47851562 149.26806641 C25.17027359 148.59806107 24.86203156 147.92805573 24.54444885 147.23774719 C24.21460495 146.52910019 23.88476105 145.82045319 23.54492188 145.09033203 C23.19699081 144.33604416 22.84905975 143.58175629 22.49058533 142.80461121 C21.36567667 140.36729089 20.23653884 137.93195521 19.10742188 135.49658203 C17.94985012 132.99079726 16.79338492 130.48450369 15.63694763 127.97819519 C14.87149816 126.31950647 14.10568142 124.66098719 13.3394928 123.00263977 C10.21615428 116.24111832 7.12100935 109.46724928 4.04492188 102.68408203 C3.42907227 101.32669922 3.42907227 101.32669922 2.80078125 99.94189453 C1.90229004 97.96044312 1.00471975 95.97857413 0.10742188 93.99658203 C-0.22257812 93.99658203 -0.55257812 93.99658203 -0.89257812 93.99658203 Z " fill="#000000" transform="translate(3051.892578125,3891.00341796875)"/>
<path d="M0 0 C0.7350031 0.00086648 1.47000619 0.00173296 2.22728211 0.0026257 C3.39025947 -0.00183098 3.39025947 -0.00183098 4.57673132 -0.0063777 C7.19467973 -0.01510261 9.81258261 -0.01657612 12.43054444 -0.01806521 C14.29934529 -0.02269066 16.16814519 -0.02771495 18.03694397 -0.03311038 C23.12776541 -0.04626161 28.21857365 -0.05268448 33.30940944 -0.05712104 C36.48591898 -0.06004702 39.66242487 -0.06415087 42.83893257 -0.06862521 C52.76587077 -0.0823065 62.69280067 -0.09197041 72.61974764 -0.0958271 C84.10080243 -0.1003114 95.58173838 -0.11787391 107.06275702 -0.1468277 C115.92303484 -0.1684011 124.78327912 -0.17852903 133.64358294 -0.17986822 C138.94217863 -0.18091926 144.24066271 -0.18689019 149.53923088 -0.20468783 C154.52059858 -0.22109396 159.50176986 -0.22336058 164.48315483 -0.21454883 C166.31579858 -0.21377446 168.14845257 -0.21817325 169.9810701 -0.22800708 C172.47443045 -0.24060629 174.96708237 -0.23491627 177.4604364 -0.22442508 C178.19320878 -0.23248148 178.92598115 -0.24053789 179.68095875 -0.24883842 C181.69674832 -0.2288692 181.69674832 -0.2288692 184.90735108 0.1430676 C186.95871309 3.22011062 187.15701004 3.83891151 187.150271 7.30737424 C187.15334763 8.14156384 187.15642426 8.97575345 187.15959412 9.83522153 C187.14881584 11.18063268 187.14881584 11.18063268 187.13781983 12.55322385 C187.13736161 13.47646955 187.13690338 14.39971524 187.13643128 15.35093808 C187.13341084 17.30192467 187.12553076 19.25290889 187.11316162 21.20385861 C187.09490118 24.19735327 187.09265199 27.19053868 187.09289795 30.18408322 C187.08798283 32.07796612 187.08215454 33.97184691 187.07531983 35.86572385 C187.074207 36.76468884 187.07309418 37.66365384 187.07194763 38.5898602 C187.06556778 39.42089765 187.05918793 40.25193509 187.05261475 41.10815549 C187.04880295 41.84079114 187.04499115 42.57342679 187.04106385 43.32826352 C186.90735108 45.1430676 186.90735108 45.1430676 185.90735108 47.1430676 C162.14735108 47.1430676 138.38735108 47.1430676 113.90735108 47.1430676 C113.91258789 52.74203 113.91782471 58.3409924 113.92322022 64.10962033 C113.93975078 82.55783486 113.95087098 101.00604967 113.95916325 119.45426965 C113.9643268 130.6452172 113.97137061 141.83615774 113.98279053 153.0271008 C113.99273557 162.77736138 113.99920407 172.52761689 114.00143957 182.2778824 C114.00274699 187.44395858 114.00583477 192.61002026 114.01308113 197.77609181 C114.01983852 202.63263093 114.02196862 207.4891495 114.02045876 212.34569287 C114.02073521 214.13360002 114.022742 215.92150781 114.02655655 217.70941091 C114.03148941 220.13946559 114.03035089 222.56944137 114.02760559 224.99949765 C114.03051843 225.71641025 114.03343128 226.43332284 114.03643239 227.17196006 C114.02147229 232.02894639 114.02147229 232.02894639 112.90735108 233.1430676 C111.46445321 233.23602575 110.01705323 233.26053273 108.57116944 233.25659299 C107.65029038 233.25651746 106.72941132 233.25644193 105.78062683 233.25636411 C104.77959427 233.25120282 103.77856171 233.24604154 102.74719483 233.24072385 C101.72759171 233.2393089 100.70798859 233.23789395 99.65748841 233.23643613 C96.38658 233.23081857 93.11573894 233.2182631 89.84485108 233.2055676 C87.63326352 233.20055486 85.4216749 233.19599156 83.21008545 233.19189572 C77.77581751 233.18084343 72.3415891 233.16408823 66.90735108 233.1430676 C65.4248102 230.17798584 65.77376387 227.16752455 65.78709656 223.917207 C65.78624214 223.16412452 65.78538771 222.41104203 65.78450739 221.63513887 C65.78285344 219.09853272 65.78837259 216.56199193 65.79382569 214.02539182 C65.7941076 212.212312 65.79394974 210.39923207 65.79338318 208.58615232 C65.79309538 203.65253386 65.79898935 198.71893955 65.80595714 193.78532672 C65.81219352 188.63367037 65.8127947 183.48201352 65.81398255 178.33035398 C65.81709502 168.56977463 65.82530728 158.80920645 65.83533204 149.04863203 C65.84649577 137.93876226 65.85200428 126.82889196 65.85702747 115.71901798 C65.86748996 92.86036024 65.8858344 70.00171779 65.90735108 47.1430676 C42.14735108 47.1430676 18.38735108 47.1430676 -6.09264892 47.1430676 C-6.11327392 39.5736926 -6.13389892 32.0043176 -6.15514892 24.2055676 C-6.16425293 21.81314816 -6.17335693 19.42072873 -6.18273681 16.95581174 C-6.18565585 15.07161635 -6.18820443 13.18742033 -6.19030517 11.30322385 C-6.19542114 10.31511716 -6.20053711 9.32701047 -6.2058081 8.30896115 C-6.20592895 7.37515622 -6.2060498 6.44135129 -6.20617431 5.47924924 C-6.20839493 4.66428479 -6.21061554 3.84932034 -6.21290344 3.00966001 C-5.96057716 -0.90695232 -3.30042711 0.01913276 0 0 Z " fill="#000000" transform="translate(1543.092648923397,3890.856932401657)"/>
<path d="M0 0 C0.8646991 -0.025746 1.72939819 -0.051492 2.62030029 -0.07801819 C6.58884651 -0.16203857 10.55719846 -0.22806562 14.52636719 -0.27441406 C16.61977404 -0.30604878 18.71300186 -0.35379769 20.80566406 -0.41796875 C23.82067365 -0.50920995 26.83245124 -0.54802339 29.84863281 -0.57592773 C31.24888702 -0.63315758 31.24888702 -0.63315758 32.6774292 -0.69154358 C39.00835162 -0.672612 39.00835162 -0.672612 41.54281616 1.84718323 C42.87055493 3.92266756 43.91777116 5.99432971 44.92675781 8.24047852 C45.80291748 9.87255249 45.80291748 9.87255249 46.69677734 11.53759766 C47.22899902 12.6061499 47.7612207 13.67470215 48.30957031 14.77563477 C48.60517853 15.36694687 48.90078674 15.95825897 49.20535278 16.56748962 C50.15838496 18.47724668 51.10527274 20.38996938 52.05175781 22.30297852 C52.72576143 23.65787087 53.39991721 25.01268753 54.07421875 26.36743164 C58.2755741 34.8249262 62.37889004 43.32523847 66.41674805 51.86206055 C73.98922477 67.78196282 82.01113972 83.48927269 89.92675781 99.24047852 C92.69459967 95.83185355 94.66404079 92.11194429 96.64550781 88.21704102 C97.0121756 87.50302628 97.37884338 86.78901154 97.75662231 86.05335999 C98.98404176 83.65944474 100.20549158 81.26253799 101.42675781 78.86547852 C102.29305471 77.17248674 103.1594304 75.47953528 104.02587891 73.78662109 C109.47162776 63.12515585 114.84319185 52.4271626 120.18457031 41.71313477 C120.49062447 41.09950829 120.79667862 40.48588181 121.11200714 39.85366058 C124.17307641 33.71625796 127.23123253 27.57745873 130.27617073 21.43203449 C131.69078707 18.57904686 133.11010641 15.72839786 134.52832031 12.87719727 C135.04516388 11.83000015 135.56200745 10.78280304 136.09451294 9.70387268 C136.57105316 8.74746384 137.04759338 7.79105499 137.53857422 6.80566406 C137.953461 5.96843307 138.36834778 5.13120209 138.79580688 4.26860046 C139.92675781 2.24047852 139.92675781 2.24047852 141.92675781 0.24047852 C143.78625488 -0.00675964 143.78625488 -0.00675964 146.06933594 -0.00244141 C146.92362183 -0.00551804 147.77790771 -0.00859467 148.65808105 -0.01176453 C149.58205688 -0.00457901 150.50603271 0.00260651 151.45800781 0.01000977 C152.4048645 0.01046799 153.35172119 0.01092621 154.32727051 0.01139832 C156.33131156 0.01442242 158.33535022 0.02231341 160.33935547 0.03466797 C163.41414682 0.05290372 166.48863683 0.05517782 169.56347656 0.05493164 C171.50748959 0.05984754 173.45150058 0.06567617 175.39550781 0.07250977 C176.78147156 0.074179 176.78147156 0.074179 178.19543457 0.07588196 C179.4768634 0.08545174 179.4768634 0.08545174 180.78417969 0.09521484 C181.91430481 0.10093254 181.91430481 0.10093254 183.06726074 0.10676575 C184.92675781 0.24047852 184.92675781 0.24047852 186.92675781 1.24047852 C187.82799118 7.67785973 184.65721991 12.29089469 181.67675781 17.74047852 C181.13100098 18.76165771 180.58524414 19.78283691 180.02294922 20.83496094 C178.33820201 23.97793268 176.63562211 27.11056391 174.92675781 30.24047852 C174.44625977 31.12300293 173.96576172 32.00552734 173.47070312 32.91479492 C171.60252763 36.34374973 169.73124272 39.77094001 167.8515625 43.19360352 C163.11942623 51.8283141 158.5221253 60.53253458 153.92675781 69.24047852 C144.43733262 87.21957944 144.43733262 87.21957944 140.35159302 94.64326477 C139.42153129 96.34552181 138.50150943 98.05334764 137.59667969 99.76914978 C134.86365808 104.91090379 131.92797441 109.78224732 128.6809082 114.6171875 C113.96684505 137.33167869 113.65719399 158.56885002 114.35418701 185.02716064 C114.47689678 190.35486976 114.50519154 195.68307612 114.54003906 201.01196289 C114.58259117 206.98250323 114.63399855 212.95162169 114.75646973 218.92112732 C114.77398788 219.81360168 114.79150604 220.70607605 114.80955505 221.62559509 C114.84389895 223.29485552 114.88243034 224.96403675 114.92579651 226.63308716 C114.96366927 228.50183391 114.95086441 230.3715035 114.92675781 232.24047852 C113.35375453 233.81348179 111.78991736 233.36773356 109.60644531 233.36987305 C108.68879395 233.37302521 107.77114258 233.37617737 106.82568359 233.37942505 C105.82778809 233.37740082 104.82989258 233.37537659 103.80175781 233.37329102 C102.78452637 233.37424774 101.76729492 233.37520447 100.71923828 233.37619019 C98.56380146 233.37687213 96.40836259 233.37501687 94.25292969 233.37084961 C90.9410341 233.36550157 87.62927415 233.37079414 84.31738281 233.37719727 C82.22884084 233.37653649 80.14029896 233.37525533 78.05175781 233.37329102 C76.55491455 233.37632736 76.55491455 233.37632736 75.02783203 233.37942505 C74.11018066 233.37627289 73.1925293 233.37312073 72.24707031 233.36987305 C71.43512207 233.36907745 70.62317383 233.36828186 69.78662109 233.36746216 C67.92675781 233.24047852 67.92675781 233.24047852 66.92675781 232.24047852 C66.87603253 229.52138595 66.88940221 226.82783671 66.94360352 224.11010742 C66.96972663 222.33770646 66.99519178 220.56529571 67.02009583 218.7928772 C67.03450022 217.84548298 67.04890461 216.89808876 67.0637455 215.92198563 C67.14404559 209.80544693 67.15616236 203.68832023 67.17884541 197.57134438 C67.20247651 192.22274792 67.25031569 186.87671789 67.35522461 181.52905273 C67.81823119 156.86342187 68.07665005 136.76584111 53.68118286 115.85517883 C50.85350806 111.64096506 48.54018338 107.16337438 46.17675781 102.67797852 C45.20335315 100.90553892 44.22952354 99.13333247 43.25488281 97.36157227 C39.065164 89.69729421 35.00309588 81.96542393 30.92675781 74.24047852 C25.91837164 64.75201367 20.89577203 55.27460453 15.73925781 45.86547852 C15.28389648 45.03145508 14.82853516 44.19743164 14.359375 43.33813477 C12.23712236 39.45252895 10.11034036 35.56962656 7.96533203 31.6965332 C6.20338381 28.51391327 4.45455285 25.32434417 2.7124939 22.13079834 C2.02927167 20.88385084 1.34155538 19.63935379 0.64907837 18.39752197 C-0.31687307 16.66410751 -1.26570413 14.92118668 -2.21386719 13.17797852 C-2.7659082 12.17637695 -3.31794922 11.17477539 -3.88671875 10.14282227 C-5.19782485 6.93573805 -5.38086879 4.67294381 -5.07324219 1.24047852 C-3.54518175 -0.28758192 -2.13166164 0.06110082 0 0 Z " fill="#000000" transform="translate(3157.0732421875,3890.759521484375)"/>
<path d="M0 0 C1.89746094 -0.3742218 1.89746094 -0.3742218 4.234375 -0.37231445 C5.10868164 -0.37854324 5.98298828 -0.38477203 6.88378906 -0.39118958 C8.30256348 -0.37737495 8.30256348 -0.37737495 9.75 -0.36328125 C11.2035791 -0.36402901 11.2035791 -0.36402901 12.68652344 -0.36479187 C14.73765104 -0.36244884 16.78878138 -0.35270694 18.83984375 -0.33618164 C21.9872395 -0.31259562 25.13378841 -0.31561814 28.28125 -0.32226562 C30.27083841 -0.31668893 32.26042323 -0.30957911 34.25 -0.30078125 C35.19584961 -0.30169266 36.14169922 -0.30260406 37.11621094 -0.30354309 C38.4276709 -0.28924507 38.4276709 -0.28924507 39.765625 -0.2746582 C40.53680664 -0.27005081 41.30798828 -0.26544342 42.10253906 -0.26069641 C44 0 44 0 46 2 C46.19588188 5.00398595 46.2647264 7.91570748 46.24723816 10.92077637 C46.24965257 11.85620758 46.25206699 12.79163878 46.25455457 13.75541639 C46.26021812 16.90927958 46.25150844 20.06294259 46.24291992 23.21679688 C46.24399215 25.46997635 46.24592993 27.72315556 46.24867249 29.97633362 C46.25353352 36.11047842 46.24584948 42.24455085 46.23571944 48.3786869 C46.2269594 54.78529406 46.22869599 61.19189882 46.2290802 67.59851074 C46.22814262 78.35914584 46.21949985 89.11974649 46.20581055 99.88037109 C46.19172247 110.96012889 46.18463975 122.03986203 46.18530273 133.11962891 C46.18536267 134.14317751 46.18536267 134.14317751 46.18542381 135.18740386 C46.18548435 136.20915441 46.18548435 136.20915441 46.1855461 137.25154638 C46.18620052 149.21384947 46.18105713 161.17614224 46.17275429 173.13844299 C46.16921546 178.23889749 46.16739018 183.33934841 46.16686058 188.43980408 C46.16585893 194.44136122 46.15977694 200.44289229 46.14969444 206.44444084 C46.14676379 208.65280434 46.14554521 210.86117084 46.14612198 213.06953621 C46.14660969 216.07279344 46.14098645 219.07597667 46.13371277 222.07922363 C46.13526137 222.96306087 46.13680997 223.84689811 46.1384055 224.75751829 C46.11417874 230.77164252 46.11417874 230.77164252 45 233 C29.82 233 14.64 233 -1 233 C-2.68282346 229.63435308 -2.14023226 225.82554886 -2.13371277 222.12391663 C-2.13597833 221.19327454 -2.13824388 220.26263245 -2.14057809 219.30378908 C-2.14693939 216.1661367 -2.14608737 213.02852728 -2.14526367 209.89086914 C-2.14825382 207.64916426 -2.15165601 205.4074599 -2.15544128 203.16575623 C-2.1642998 197.06255934 -2.16662016 190.95937645 -2.16725707 184.85617375 C-2.1682046 179.76888773 -2.17188106 174.681605 -2.17542917 169.59432024 C-2.18311457 158.28278915 -2.18609715 146.97126677 -2.18542381 135.65973396 C-2.18538386 134.98061794 -2.1853439 134.30150193 -2.18530273 133.60180664 C-2.18526185 132.92186441 -2.18522097 132.24192217 -2.18517885 131.54137563 C-2.18477227 120.5180872 -2.19434427 109.4948329 -2.2084411 98.47155435 C-2.22279131 87.16117888 -2.22952873 75.85082527 -2.22884732 64.54043859 C-2.22859176 58.18718689 -2.23147529 51.83397381 -2.24202538 45.48073006 C-2.25167248 39.5078841 -2.25180892 33.53511395 -2.24450874 27.5622654 C-2.24345869 25.3656071 -2.24585051 23.16894416 -2.2518692 20.97229385 C-2.25953287 17.98246102 -2.25498185 14.99289372 -2.24723816 12.00306702 C-2.25238172 11.12603357 -2.25752529 10.24900012 -2.26282471 9.3453899 C-2.22827142 3.34240713 -2.22827142 3.34240713 0 0 Z " fill="#000000" transform="translate(1448,3891)"/>
<path d="M0 0 C1.89746094 -0.3742218 1.89746094 -0.3742218 4.234375 -0.37231445 C5.10868164 -0.37854324 5.98298828 -0.38477203 6.88378906 -0.39118958 C8.30256348 -0.37737495 8.30256348 -0.37737495 9.75 -0.36328125 C11.2035791 -0.36402901 11.2035791 -0.36402901 12.68652344 -0.36479187 C14.73765104 -0.36244884 16.78878138 -0.35270694 18.83984375 -0.33618164 C21.9872395 -0.31259562 25.13378841 -0.31561814 28.28125 -0.32226562 C30.27083841 -0.31668893 32.26042323 -0.30957911 34.25 -0.30078125 C35.19584961 -0.30169266 36.14169922 -0.30260406 37.11621094 -0.30354309 C38.4276709 -0.28924507 38.4276709 -0.28924507 39.765625 -0.2746582 C40.53680664 -0.27005081 41.30798828 -0.26544342 42.10253906 -0.26069641 C44 0 44 0 46 2 C46.19588188 5.00398595 46.2647264 7.91570748 46.24723816 10.92077637 C46.24965257 11.85620758 46.25206699 12.79163878 46.25455457 13.75541639 C46.26021812 16.90927958 46.25150844 20.06294259 46.24291992 23.21679688 C46.24399215 25.46997635 46.24592993 27.72315556 46.24867249 29.97633362 C46.25353352 36.11047842 46.24584948 42.24455085 46.23571944 48.3786869 C46.2269594 54.78529406 46.22869599 61.19189882 46.2290802 67.59851074 C46.22814262 78.35914584 46.21949985 89.11974649 46.20581055 99.88037109 C46.19172247 110.96012889 46.18463975 122.03986203 46.18530273 133.11962891 C46.18536267 134.14317751 46.18536267 134.14317751 46.18542381 135.18740386 C46.18548435 136.20915441 46.18548435 136.20915441 46.1855461 137.25154638 C46.18620052 149.21384947 46.18105713 161.17614224 46.17275429 173.13844299 C46.16921546 178.23889749 46.16739018 183.33934841 46.16686058 188.43980408 C46.16585893 194.44136122 46.15977694 200.44289229 46.14969444 206.44444084 C46.14676379 208.65280434 46.14554521 210.86117084 46.14612198 213.06953621 C46.14660969 216.07279344 46.14098645 219.07597667 46.13371277 222.07922363 C46.13526137 222.96306087 46.13680997 223.84689811 46.1384055 224.75751829 C46.11417874 230.77164252 46.11417874 230.77164252 45 233 C29.82 233 14.64 233 -1 233 C-2.68282346 229.63435308 -2.14023226 225.82554886 -2.13371277 222.12391663 C-2.13597833 221.19327454 -2.13824388 220.26263245 -2.14057809 219.30378908 C-2.14693939 216.1661367 -2.14608737 213.02852728 -2.14526367 209.89086914 C-2.14825382 207.64916426 -2.15165601 205.4074599 -2.15544128 203.16575623 C-2.1642998 197.06255934 -2.16662016 190.95937645 -2.16725707 184.85617375 C-2.1682046 179.76888773 -2.17188106 174.681605 -2.17542917 169.59432024 C-2.18311457 158.28278915 -2.18609715 146.97126677 -2.18542381 135.65973396 C-2.18538386 134.98061794 -2.1853439 134.30150193 -2.18530273 133.60180664 C-2.18526185 132.92186441 -2.18522097 132.24192217 -2.18517885 131.54137563 C-2.18477227 120.5180872 -2.19434427 109.4948329 -2.2084411 98.47155435 C-2.22279131 87.16117888 -2.22952873 75.85082527 -2.22884732 64.54043859 C-2.22859176 58.18718689 -2.23147529 51.83397381 -2.24202538 45.48073006 C-2.25167248 39.5078841 -2.25180892 33.53511395 -2.24450874 27.5622654 C-2.24345869 25.3656071 -2.24585051 23.16894416 -2.2518692 20.97229385 C-2.25953287 17.98246102 -2.25498185 14.99289372 -2.24723816 12.00306702 C-2.25238172 11.12603357 -2.25752529 10.24900012 -2.26282471 9.3453899 C-2.22827142 3.34240713 -2.22827142 3.34240713 0 0 Z " fill="#000000" transform="translate(1324,3891)"/>
</svg>
